<?xml version="1.0" standalone="no"?>
<!DOCTYPE svg PUBLIC "-//W3C//DTD SVG 1.1//EN" "http://www.w3.org/Graphics/SVG/1.1/DTD/svg11.dtd" >
<svg>
<metadata>
Created by FontForge 20090622 at Mon Nov 19 07:34:02 2018
 By deploy user
Copyright (c) 2015 Axel Pelletanche Thevenart, Building Paris, Emilie Rigaud, all rights reserved
</metadata>
<defs>
<font id="KnifMono-Regular" horiz-adv-x="1228" >
  <font-face 
    font-family="Knif Mono Regular"
    font-weight="400"
    font-stretch="normal"
    units-per-em="2048"
    panose-1="2 0 0 9 7 0 0 0 0 3"
    ascent="1536"
    descent="-512"
    x-height="897"
    cap-height="1382"
    bbox="-76 -494 1272 1778"
    underline-thickness="102"
    underline-position="-102"
    unicode-range="U+0020-U+25FC"
  />
<missing-glyph horiz-adv-x="748" 
d="M68 0v1365h544v-1365h-544zM136 68h408v1229h-408v-1229z" />
    <glyph glyph-name=".notdef" horiz-adv-x="748" 
d="M68 0v1365h544v-1365h-544zM136 68h408v1229h-408v-1229z" />
    <glyph glyph-name="glyph1" horiz-adv-x="0" 
 />
    <glyph glyph-name="glyph2" horiz-adv-x="682" 
 />
    <glyph glyph-name="space" unicode=" " 
 />
    <glyph glyph-name="exclam" unicode="!" 
d="M494 1380l73 -952h62l59 952h-194zM600 -41l-164 166l164 164l162 -164z" />
    <glyph glyph-name="quotedbl" unicode="&#x22;" 
d="M336 1436h207v-62l-92 -577h-21l-94 575v64zM684 1436h207v-62l-92 -577h-21l-94 575v64z" />
    <glyph glyph-name="numbersign" unicode="#" 
d="M1190 877h-313l-93 -357h293v-59h-307l-121 -461h-61l121 461h-363l-121 -461h-61l121 461h-246v59h260l92 357h-239v57h256l114 444h62l-115 -444h362l115 444h62l-115 -444h297v-57zM723 520l92 357h-362l-93 -357h363z" />
    <glyph glyph-name="dollar" unicode="$" 
d="M233 420h21l31 -246q1 -1 17.5 -15.5t27.5 -22.5l33.5 -23.5t44 -25.5t49 -20.5t59.5 -16t66 -5.5h4v582l-83 33.5t-76 35.5t-70.5 42t-56.5 50t-46.5 63t-27.5 77t-11 96q0 74 33.5 141.5t87.5 115t119.5 78.5t130.5 40v102h61v-98q68 -2 133.5 -20.5t114 -45.5
t77.5 -47.5t48 -38.5l-57 -401h-21l-65 389q-106 72 -230 76v-553l45 -19q150 -63 201 -94q126 -77 154 -198q10 -42 10 -91q0 -151 -124.5 -267.5t-285.5 -127.5v-145h-61v145q-135 8 -257.5 76t-164.5 129zM586 784v529q-104 -12 -174 -88t-70 -183q0 -45 12 -80t30.5 -59
t53.5 -46.5t65.5 -37t82.5 -35.5zM647 602v-553q83 14 145 62.5t90.5 108.5t28.5 122q0 88 -56.5 143t-207.5 117z" />
    <glyph glyph-name="percent" unicode="%" 
d="M274 655q-82 0 -144.5 31t-98.5 83.5t-54 114.5t-18 132q0 66 22 133t62 124.5t106 93.5t146 36q73 0 131.5 -32t95 -85t55.5 -118t19 -136q0 -171 -94 -274t-228 -103zM158 784l172 521q-24 6 -60 6q-86 0 -148.5 -75.5t-62.5 -219.5q0 -63 26.5 -126t72.5 -106z
M385 1276l-174 -524q23 -13 74 -13q93 0 147.5 72.5t54.5 202.5q0 76 -24 149t-78 113zM188 238l-53 53l905 844l52 -52zM950 -25q-82 0 -144.5 31t-98.5 83.5t-54 114.5t-18 132q0 66 22 133t62 124.5t106 93.5t146 36q73 0 131.5 -32t95 -85t55.5 -118t19 -136
q0 -171 -94 -274t-228 -103zM834 104l172 521q-24 6 -60 6q-86 0 -148.5 -75.5t-62.5 -219.5q0 -63 26.5 -126t72.5 -106zM1061 596l-174 -524q23 -13 74 -13q93 0 147.5 72.5t54.5 202.5q0 76 -24 149t-78 113z" />
    <glyph glyph-name="ampersand" unicode="&#x26;" 
d="M1221 -27l-27 -36l-268 180q-167 -154 -412 -154q-72 0 -142.5 21.5t-132 63.5t-99.5 113t-38 161q0 99 59.5 193t155.5 153q-155 228 -155 397q0 73 22 133.5t67 108.5t120.5 75t175.5 27q81 0 158 -20t137.5 -53.5t104 -67t79.5 -70.5l-55 -426h-21l-59 371
q-24 30 -53.5 56t-73 53.5t-102 44t-123.5 16.5q-66 0 -114.5 -20t-76 -56t-40.5 -81.5t-13 -102.5q0 -109 79.5 -246t199 -265t278.5 -261l59 -50q90 148 86 340l-305 50v18h447l4 -6v-70q-39 -234 -164 -389zM561 43q183 0 295 119l-174 117q-188 149 -332 342
q-44 -46 -75 -110t-31 -136q0 -59 19.5 -116.5t56.5 -106.5t99.5 -79t141.5 -30z" />
    <glyph glyph-name="quotesingle" unicode="'" 
d="M510 1436h207v-62l-92 -577h-21l-94 575v64z" />
    <glyph glyph-name="parenleft" unicode="(" 
d="M954 -387l33 37q-8 7 -21.5 20.5t-52 60t-74 97.5t-78.5 131t-74 163t-52 191t-21 217q0 116 21 229t54.5 200.5t74 167t81.5 135l74.5 97t54.5 61.5l21 20l-32 35q-10 -6 -27.5 -18.5t-68.5 -56t-97 -94t-102 -133.5t-96.5 -173.5t-68.5 -214t-28 -255.5
q0 -118 26.5 -232.5t68.5 -203t93 -168t102.5 -135.5t93.5 -97t69 -61z" />
    <glyph glyph-name="parenright" unicode=")" 
d="M266 1475l-33 -35q8 -7 21.5 -20.5t53.5 -60t76 -98.5t79.5 -134t75.5 -168t53.5 -199.5t21.5 -229.5q0 -109 -20.5 -216.5t-53.5 -192.5t-72.5 -161.5t-79 -132t-72.5 -96.5t-54 -61l-20 -20l32 -37q10 7 27.5 20.5t67 60t95 98t101 134t95 169t67 202t27.5 233.5
q0 104 -16.5 202.5t-45 177.5t-65 151.5t-77 128t-81 103.5t-77 80.5l-65 56t-45.5 34.5z" />
    <glyph glyph-name="asterisk" unicode="*" 
d="M928 1104l-43 -82q-13 6 -36.5 15.5t-89 25.5t-122.5 16q0 -74 15.5 -137.5t30.5 -89.5l15 -27l-82 -63l-81 63q6 10 15.5 29.5t25.5 85.5t16 139q-56 0 -118 -14.5t-96 -28.5l-34 -14l-43 82l43 82q14 -7 37.5 -17t89 -26.5t121.5 -16.5q0 47 -6 90.5t-14 72.5t-16.5 51
t-14.5 32l-6 10l81 64l82 -64q-7 -10 -17 -29t-27 -85t-17 -142q57 0 119 15t96 30l33 15z" />
    <glyph glyph-name="plus" unicode="+" 
d="M569 614h-350v74h350v330h74v-330h365v-72h-365v-360h-74v358z" />
    <glyph glyph-name="comma" unicode="," 
d="M592 295q72 -64 107.5 -119t35.5 -129q0 -239 -200 -403l-23 22q39 42 61.5 102t22.5 123q0 51 -17 95.5t-44 74t-53 48t-50 26.5z" />
    <glyph glyph-name="hyphen" unicode="-" 
d="M264 473v74h721v-74h-721z" />
    <glyph glyph-name="period" unicode="." 
d="M614 -45l-180 180l180 180l179 -180z" />
    <glyph glyph-name="slash" unicode="/" 
d="M418 -211h-80l473 1626h80z" />
    <glyph glyph-name="zero" unicode="0" 
d="M610 -41q-105 0 -190 39t-141.5 104.5t-95 155t-55.5 187.5t-17 204q0 84 15 170.5t44 170t75 157t103 129.5t134 88.5t163 32.5q115 0 207.5 -61.5t149.5 -164t87.5 -228t30.5 -261.5q0 -166 -41.5 -304t-111.5 -228.5t-162.5 -140.5t-194.5 -50zM416 127l309 1155
q-49 21 -121 21q-56 0 -109.5 -24t-102.5 -76.5t-85.5 -127.5t-58 -184.5t-21.5 -239.5q0 -155 49.5 -296t139.5 -228zM795 1235l-308 -1159q29 -22 59.5 -28.5t80.5 -6.5q165 0 263.5 160.5t98.5 445.5q0 110 -16 214.5t-62 211t-116 162.5z" />
    <glyph glyph-name="one" unicode="1" 
d="M119 0v20l479 72v852l23 172l-418 -348l-17 25l523 608l20 -6v-1303l412 -72v-20h-1022z" />
    <glyph glyph-name="two" unicode="2" 
d="M147 0v20l517 670q64 83 103.5 149t54.5 116.5t18.5 77t3.5 65.5q0 93 -63 143.5t-212 50.5q-146 0 -252 -80l-47 -438h-20l-76 451q92 76 198.5 120t256.5 44q173 0 269.5 -72.5t96.5 -200.5q0 -117 -50.5 -225.5t-149.5 -226.5l-453 -576l623 6l55 330h20l58 -424h-951
z" />
    <glyph glyph-name="three" unicode="3" 
d="M1036 1356l-403 -574q67 5 133 1t126.5 -29.5t107 -65t74.5 -105t28 -149.5q0 -132 -67 -238.5t-178.5 -164.5t-242.5 -58q-105 0 -201.5 29t-151 62t-95.5 71l59 332h21l53 -322q83 -79 299 -79q92 0 162 31.5t109.5 83.5t59 110.5t19.5 120.5q0 147 -76.5 227
t-216.5 80q-23 0 -45 -2.5t-41 -8t-34 -10.5t-30 -13l-22.5 -12t-18 -11t-11.5 -7l-15 17l400 633l-541 -5l-53 -376h-21l-78 473l299 -21h592v-20z" />
    <glyph glyph-name="four" unicode="4" 
d="M113 369l630 1054h21v-186l-406 -692l-96 -115h365v197l110 141h21v-340h293l-7 -92l-286 12v-268l338 -60v-20h-820v20l351 60v268h-506z" />
    <glyph glyph-name="five" unicode="5" 
d="M188 1376h537l297 21l-66 -471h-20l-51 372l-527 7v-547l78 20q127 33 242 27q177 -8 292 -111t115 -268q0 -107 -43.5 -195t-115 -143t-159.5 -85t-181 -30q-143 0 -253.5 49.5t-178.5 112.5l59 330h20l52 -320q37 -34 115 -56.5t184 -22.5q72 0 132 19.5t100 52.5
t68.5 76t41 89t12.5 94q0 142 -95 222.5t-265 80.5q-86 0 -175 -20.5t-139 -44.5l-14 10l-12 623z" />
    <glyph glyph-name="six" unicode="6" 
d="M887 1362q-78 -30 -148.5 -70t-141 -100t-126.5 -132.5t-100 -171t-66 -212.5q177 198 371 198q168 0 277.5 -108.5t109.5 -271.5q0 -71 -16.5 -142.5t-53.5 -140t-89 -121t-129 -85t-169 -32.5q-195 0 -320.5 148t-125.5 414q0 146 45.5 278.5t119 229.5t168 175
t190.5 124t189 67zM289 498q0 -114 41.5 -213t121 -160.5t179.5 -61.5q75 0 134.5 32.5t94 85t52.5 112.5t18 121q0 151 -77 247.5t-230 96.5q-123 0 -209.5 -70t-124.5 -168v-22z" />
    <glyph glyph-name="seven" unicode="7" 
d="M258 625h397l279 665h-643l-37 -405h-21l-83 510l296 -21h666l-319 -749h337l-14 -105l-344 10l-96 -645l-55 13l22 637h-385v90z" />
    <glyph glyph-name="eight" unicode="8" 
d="M827 676q250 -142 250 -336q0 -88 -38 -160.5t-101 -118.5t-141.5 -71t-161.5 -25q-51 0 -104 7.5t-119.5 32t-116.5 62.5t-84.5 106t-34.5 157q0 257 332 372l-62 35q-84 47 -136 124t-52 183q0 85 35 156t90.5 113.5t118.5 66t123 23.5q101 0 179.5 -30.5t123 -81
t66.5 -108.5t22 -120q0 -127 -77 -216t-183 -130zM680 752q97 47 149 123t52 172q0 138 -76 208t-180 70q-111 0 -171.5 -77.5t-60.5 -180.5q0 -82 51.5 -153.5t139.5 -114.5zM594 659q-51 -19 -97 -46t-91 -67t-72 -96t-27 -120q0 -115 104 -200t222 -85q127 0 218 71
t91 193q0 179 -225 289z" />
    <glyph glyph-name="nine" unicode="9" 
d="M293 29q117 42 212 98t177 136.5t140 192t87 249.5q-142 -115 -338 -115q-156 0 -270.5 116t-114.5 289q0 76 31 148.5t86.5 130.5t143 93.5t192.5 35.5q84 0 159.5 -38.5t134.5 -109t93 -181t33 -243.5q-2 -128 -39 -245t-98 -206t-137.5 -162.5t-160 -122.5t-163 -78.5
t-148.5 -36.5zM918 836q0 104 -18 190t-55 152.5t-99 103.5t-144 37q-113 0 -191.5 -91t-80.5 -212q-1 -158 82 -235t221 -79q85 -1 168.5 24t116.5 56v54z" />
    <glyph glyph-name="colon" unicode=":" 
d="M530 549l-159 160l159 159l158 -159zM530 -25l-159 160l159 160l158 -160z" />
    <glyph glyph-name="semicolon" unicode=";" 
d="M575 549l-159 160l159 159l158 -159zM592 295q72 -64 107.5 -119t35.5 -129q0 -239 -200 -403l-23 22q39 42 61.5 102t22.5 123q0 51 -17 95.5t-44 74t-53 48t-50 26.5z" />
    <glyph glyph-name="less" unicode="&#x3c;" 
d="M377 582l596 -531l-60 -61l-657 592l657 592l60 -64z" />
    <glyph glyph-name="equal" unicode="=" 
d="M242 752v73h747v-73h-747zM242 494v73h747v-73h-747z" />
    <glyph glyph-name="greater" unicode="&#x3e;" 
d="M256 1110l59 64l658 -592l-658 -592l-59 61l596 531z" />
    <glyph glyph-name="question" unicode="?" 
d="M637 651l-35 -264h-43l-49 264l195 189q81 78 108 142.5t27 131.5q0 94 -58 140t-149 44q-63 0 -126 -21t-101 -56l-60 -398h-20l-58 404q68 68 174.5 122t235.5 54q143 0 223 -65.5t80 -198.5q0 -89 -37.5 -164.5t-120.5 -151.5zM586 -41l-164 166l164 164l162 -164z
" />
    <glyph glyph-name="at" unicode="@" 
d="M283 315q-1 77 25 158.5t73.5 152t124 115.5t166.5 45q50 0 101 -25.5t79 -51.5l61 41l13 -7l-99 -559l13 -4q272 223 272 598q0 90 -18.5 175.5t-57.5 164t-112.5 126.5t-171.5 48q-92 0 -184 -51.5t-169 -143.5t-137 -210t-93.5 -260.5t-33.5 -284.5q0 -90 15 -177.5
t49 -170.5t83.5 -146t123.5 -101t163 -38q150 0 252 70t183 198l43 -36q-32 -52 -71 -97t-98.5 -92t-143.5 -74.5t-181 -27.5t-186 47.5t-156.5 132t-107.5 210.5t-40 273q0 176 42.5 340.5t113 289.5t159.5 219.5t185.5 144t186.5 49.5q88 0 160.5 -30t122 -81.5t83 -122.5
t49 -151.5t15.5 -169.5q0 -111 -23 -211.5t-56.5 -170.5t-81 -132.5t-86.5 -99t-83 -68.5q-32 -24 -59 -28.5t-42.5 16.5t-9.5 67l21 172q-31 -56 -56.5 -95.5t-61 -84t-74.5 -67.5t-79 -23q-93 0 -149.5 71.5t-56.5 167.5zM811 618q-23 25 -76 48.5t-102 23.5q-45 0 -81 -7
t-50 -14l-13 -7q-36 -55 -61.5 -140t-33 -166t18.5 -139.5t85 -58.5q49 0 101 46.5t93 118t72 149t47 146.5z" />
    <glyph glyph-name="A" unicode="A" 
d="M1079 104l107 -84v-20h-492v20l250 60l-110 387h-451l-107 -387l275 -60v-20h-479v20l106 84l332 1184l-264 74v20h454zM408 559h403l-160 537l-37 219z" />
    <glyph glyph-name="B" unicode="B" 
d="M424 1382q549 0 549 -331q0 -115 -69.5 -203t-180.5 -117v-6q167 -25 270 -120t103 -234q0 -105 -39 -178.5t-112.5 -115t-165.5 -59.5t-212 -18h-461v20l158 68v1210l-147 64v20h307zM500 1323l-101 -18v-568h219q100 34 160 117.5t60 196.5q0 121 -98 196.5t-240 75.5z
M553 657h-154v-577l160 -23q188 0 293.5 72.5t105.5 222.5q0 134 -113.5 219.5t-291.5 85.5z" />
    <glyph glyph-name="C" unicode="C" 
d="M1038 768l-47 408q-146 127 -311 127q-86 0 -162 -40.5t-133.5 -115.5t-91 -189.5t-33.5 -252.5q0 -75 11.5 -149.5t34 -149.5t61 -139.5t89 -114.5t121.5 -78.5t154 -28.5q64 0 113 12t82 35t52 44t40 52l53 252h21l38 -309q-61 -63 -173.5 -115.5t-262.5 -52.5
q-260 0 -417.5 187t-157.5 524q0 136 45 268.5t123 236t191.5 167t240.5 63.5q47 0 92.5 -7.5t78 -17.5t72 -28.5t59 -29.5l55.5 -32.5l46 -27.5l-61 -498h-23z" />
    <glyph glyph-name="D" unicode="D" 
d="M47 1362v20h320q169 0 299 -31t218.5 -88t145.5 -142t82 -188.5t25 -232.5q0 -72 -10 -141t-34 -139.5t-60 -131.5t-91 -114.5t-123.5 -91.5t-161.5 -60t-202 -22h-408v20l158 60v1218zM340 80l119 -21q118 10 209.5 49t151.5 97.5t98.5 138.5t54.5 166.5t16 187.5
q0 154 -40.5 273t-114.5 194.5t-173.5 115t-222.5 42.5l-98 -18v-1225z" />
    <glyph glyph-name="E" unicode="E" 
d="M98 20l158 60v1216l-150 66v20h654l299 21l-66 -473h-20l-51 366l-451 19l-80 -19v-573l430 6v-102l-430 6v-553l98 -10l472 36l59 273h20l33 -379h-975v20z" />
    <glyph glyph-name="F" unicode="F" 
d="M162 20l157 60v1216l-149 66v20h655l297 21l-65 -473h-21l-51 366l-450 19l-80 -19v-614l450 6v-102l-450 6v-512l415 -60v-20h-708v20z" />
    <glyph glyph-name="G" unicode="G" 
d="M1010 768l-49 408q-139 127 -310 127q-175 0 -282 -160.5t-107 -442.5q0 -91 15 -181t50 -176t85 -152t125.5 -106t167.5 -40q73 0 137.5 26.5t95.5 63.5v303l-438 84v21h614v-21l-39 -82v-342q-58 -56 -155.5 -95.5t-235.5 -39.5q-92 0 -175 27t-154 84t-123 139.5
t-81.5 200.5t-29.5 260q0 140 41 272t113.5 235t181.5 165.5t235 62.5q47 0 93 -8t77 -17t72.5 -28.5t58.5 -29.5l55.5 -34t45.5 -28l-62 -496h-22z" />
    <glyph glyph-name="H" unicode="H" 
d="M1155 0h-477v20l229 60v565h-583v-565l229 -60v-20h-477v20l117 60v1216l-107 66v20h451v-20l-213 -66v-555h583v555l-213 66v20h451v-20l-107 -66v-1216l117 -60v-20z" />
    <glyph glyph-name="I" unicode="I" 
d="M86 0v20l465 84l-4 1194l-400 64v20h943v-20l-402 -64v-1194l463 -84v-20h-1065z" />
    <glyph glyph-name="J" unicode="J" 
d="M248 1382v-20l506 -76v-1157q-83 -42 -185 -52t-189.5 6t-152.5 37t-98 42l-10 -17q15 -24 76 -65t160.5 -79t187.5 -38q92 0 158 22t102.5 55t56.5 86.5t25.5 100.5t5.5 113v950l321 72v20h-964z" />
    <glyph glyph-name="K" unicode="K" 
d="M1217 1362l-195 -59l-459 -549l123 -35l522 -776l-12 -13q-118 78 -229 191.5t-177.5 205.5l-149 210t-122.5 168l-139 -156v-469l358 -60v-20h-651v20l158 60v1223l-148 59v20h441v-20l-158 -59v-623l524 629l-223 53v20h537v-20z" />
    <glyph glyph-name="L" unicode="L" 
d="M92 20l199 60v1218l-168 64v20h608v-20l-305 -64v-1218l100 -10l449 36l59 355h21l32 -461h-995v20z" />
    <glyph glyph-name="M" unicode="M" 
d="M930 1382h241v-20l-114 -66v-1216l96 -60v-20h-481v20l266 60v1137l-37 -117l-283 -551h-38l-254 553l-37 110v-1132l233 -60v-20h-448v20l108 60v1216l-125 66v20h277l264 -577l14 -90z" />
    <glyph glyph-name="N" unicode="N" 
d="M1155 1382v-20l-96 -64v-1298l-68 -27l-635 1031l-55 139v-1063l363 -60v-20h-607v20l138 60v1177l-119 105v20h205l612 -1015l59 -154v1085l-321 64v20h524z" />
    <glyph glyph-name="O" unicode="O" 
d="M610 -37q-92 0 -171 29t-135 81t-99.5 120t-69 148.5t-38.5 163.5t-13 169q0 191 70 358.5t200.5 272t292.5 104.5q105 0 190.5 -40.5t142 -108t95 -159t55.5 -190t17 -204.5q0 -220 -64.5 -388.5t-186.5 -262t-286 -93.5zM608 1300q-60 0 -114.5 -21.5t-105 -69.5
t-87 -119t-58.5 -178t-22 -238q0 -107 30 -216.5t82.5 -200t134 -147.5t175.5 -57q169 0 266 168t97 449q0 81 -10.5 162t-39 167.5t-72 151.5t-115 107t-161.5 42z" />
    <glyph glyph-name="P" unicode="P" 
d="M551 547l-123 2v-469l379 -60v-20h-692v20l178 60v1216l-150 66v20h328q65 0 121 -3t126 -13.5t126.5 -28t112.5 -49t93.5 -73.5t61 -104.5t23.5 -139.5q0 -95 -34.5 -170.5t-91.5 -123t-133.5 -78.5t-157.5 -43t-167 -9zM508 1315l-80 -19v-684h111q215 0 331.5 87
t116.5 249q0 86 -29 152.5t-75 106t-110.5 65t-128.5 34.5t-136 9z" />
    <glyph glyph-name="Q" unicode="Q" 
d="M907 76l256 -410l-14 -12q-186 136 -358 360q-73 -24 -162 -24q-111 0 -203.5 40t-155.5 107t-107 156t-64.5 187t-20.5 200q0 191 71 358.5t202.5 272t293.5 104.5q105 0 191 -40.5t143 -108t96 -159t56.5 -190t17.5 -204.5q0 -222 -62.5 -386.5t-179.5 -250.5zM662 45
q48 0 94 16q-66 91 -219 336l125 74l204 -328q138 159 138 533q0 81 -10.5 162t-39 168t-72 152.5t-115 108t-161.5 42.5q-60 0 -114.5 -21.5t-105 -70.5t-87 -120.5t-58.5 -178.5t-22 -238q0 -86 18.5 -174.5t56.5 -171t89.5 -147t124 -103.5t154.5 -39z" />
    <glyph glyph-name="R" unicode="R" 
d="M92 1382v-20l148 -59v-1223l-158 -60v-20h651v20l-358 60v532h203q24 -31 79.5 -111l103.5 -144t115.5 -144t148 -153t167.5 -130l12 13l-438 651l-96 49v6q161 35 252.5 135.5t91.5 239.5q0 86 -31 149.5t-83 103t-132.5 63.5t-168.5 33t-202 9h-305zM496 690h-121v615
l92 18q189 2 293 -75t104 -240q0 -64 -22.5 -120t-66 -101t-115.5 -71t-164 -26z" />
    <glyph glyph-name="S" unicode="S" 
d="M205 512h20l47 -326q99 -139 303 -139q185 0 278 76t93 199q0 109 -90 176.5t-297 138.5q-68 23 -119 45.5t-103 56t-85 72t-53.5 93.5t-20.5 120q0 108 66 197.5t168 138.5t213 49q132 0 248 -53.5t161 -98.5l-57 -401h-21l-65 389q-40 27 -113 48.5t-160 21.5
q-143 0 -223 -75t-80 -198q0 -34 8.5 -63t19.5 -50.5t35.5 -42t43.5 -33.5t56.5 -29.5t61 -25.5l72 -27l74.5 -28q163 -64 230 -104q169 -103 181 -270q1 -14 1 -29q0 -158 -143 -267.5t-341 -109.5q-89 0 -171 19.5t-140.5 50t-94 55t-58.5 47.5z" />
    <glyph glyph-name="T" unicode="T" 
d="M1128 1401l-51 -471h-20l-60 366l-313 17v-1209l403 -84v-20h-944v20l404 86v1207l-314 -17l-59 -366h-20l-52 471l301 -27h422z" />
    <glyph glyph-name="U" unicode="U" 
d="M156 1296l-115 66v20h377v-20l-123 -66v-821q0 -191 91 -305.5t239 -114.5q90 0 154 32t100 92t51.5 135t15.5 173v801l-348 74v20h492l-21 -100v-776q0 -119 -27.5 -216.5t-82.5 -171t-143.5 -114.5t-203.5 -41q-111 0 -195 35t-132.5 88.5t-78.5 128t-40 141.5t-10 142
v798z" />
    <glyph glyph-name="V" unicode="V" 
d="M537 0h170l364 1290l162 72v20h-553v-20l281 -70l-326 -1169l-43 192l-297 981l217 66v20h-514v-20l154 -72z" />
    <glyph glyph-name="W" unicode="W" 
d="M559 877l-199 -764l2 145l-112 1032l225 72v20h-442v-20l96 -72l141 -1290h152l203 727l18 -143l191 -584h137l127 1290l100 72v20h-463v-20l258 -72l-104 -1173l-19 141l-223 733l-131 2v-20z" />
    <glyph glyph-name="X" unicode="X" 
d="M1202 1362l-162 -66l-338 -614l342 -602l158 -60v-20h-557v20l246 60l-297 524l-270 -524l170 -60v-20h-455v20l164 60l332 631l-332 585l-168 66v20h495l-10 -20l-166 -66l291 -512l281 512l-150 66v20h426v-20z" />
    <glyph glyph-name="Y" unicode="Y" 
d="M176 1296l-172 66v20h516v-20l-186 -68l289 -657l270 659l-166 66v20h451v-20l-181 -66l-335 -770v-446l362 -60v-20h-842v20l342 60v450z" />
    <glyph glyph-name="Z" unicode="Z" 
d="M1100 0l-53 481h-21l-65 -385l-648 -14l736 1280v20h-615l-299 21l66 -473h20l51 366l596 4l-729 -1280v-20h961z" />
    <glyph glyph-name="bracketleft" unicode="[" 
d="M496 1446v-1802h581v20l-465 84v1614l404 63v21h-520z" />
    <glyph glyph-name="backslash" unicode="\" 
d="M358 1415h80l453 -1608h-80z" />
    <glyph glyph-name="bracketright" unicode="]" 
d="M213 1446v-21l403 -63v-1614l-464 -84v-20h581v1802h-520z" />
    <glyph glyph-name="asciicircum" unicode="^" 
d="M616 526l293 -243l43 41l-336 426l-335 -426l43 -41z" />
    <glyph glyph-name="underscore" unicode="_" 
d="M61 -74v74h1104v-74h-1104z" />
    <glyph glyph-name="grave" unicode="`" 
d="M868 991l31 31l-266 336l-90 -117z" />
    <glyph glyph-name="a" unicode="a" 
d="M721 459h59v88q0 139 -45.5 204.5t-154.5 65.5q-60 0 -120 -14.5t-90 -28.5l-30 -14l-53 -234h-21l-41 246l22 16t58 36t87.5 46t104 36t113.5 16q76 0 131 -19.5t87.5 -51t51.5 -80.5t25 -97.5t6 -112.5v-469l228 -43v-20l-326 -47l-20 161q-44 -65 -134.5 -117.5
t-187.5 -52.5q-131 0 -210 59.5t-79 166.5q0 123 138 191.5t401 68.5zM782 188v199q-205 0 -303 -23q-168 -39 -168 -147q0 -72 60.5 -105.5t152.5 -33.5q64 0 144 36.5t114 73.5z" />
    <glyph glyph-name="b" unicode="b" 
d="M375 774q136 148 305 148q72 0 140.5 -26.5t125 -75.5t91 -128t34.5 -176q0 -95 -31.5 -190.5t-87 -174.5t-141 -128.5t-184.5 -49.5q-144 0 -271 127l-106 -145l-17 6l21 229v1139l-201 23v20l342 76l-12 -143v-396zM934 461q0 65 -17 124.5t-51.5 110.5t-95.5 81
t-141 30q-137 0 -250 -109v-530q128 -98 254 -98q145 0 223 109.5t78 281.5z" />
    <glyph glyph-name="c" unicode="c" 
d="M981 799l-70 -293h-20l-43 266q-110 45 -219 45q-145 0 -226 -90.5t-81 -273.5q0 -73 17 -133t46 -100t64.5 -69t76.5 -45t76.5 -23t69.5 -7q104 0 208.5 30.5t174.5 75.5l16 -20q-54 -62 -176 -125.5t-246 -63.5q-126 0 -229.5 51t-167.5 154.5t-64 243.5
q0 119 44.5 217t116.5 158t155.5 92.5t167.5 32.5q152 0 309 -123z" />
    <glyph glyph-name="d" unicode="d" 
d="M866 803l-8 119v407l-332 23v20l475 76l-12 -143v-1213l197 -43v-20l-301 -49l-21 153q-49 -61 -134 -110.5t-181 -49.5q-172 0 -289 126.5t-117 318.5q0 133 62 249.5t167.5 185.5t227.5 69q58 0 102.5 -10t76 -30.5t48.5 -36.5t39 -42zM860 211v510q-37 31 -112 58.5
t-162 27.5q-146 0 -228 -92.5t-82 -261.5q0 -94 36.5 -178.5t108 -140.5t161.5 -56q181 0 278 133z" />
    <glyph glyph-name="e" unicode="e" 
d="M317 471q0 -95 26 -168.5t64.5 -114.5t88.5 -68t91.5 -35.5t80.5 -8.5q124 0 228.5 35t158.5 71l16 -18q-25 -27 -57 -53.5t-84.5 -60.5t-122 -55.5t-141.5 -21.5q-101 0 -183 25.5t-136 68t-90.5 101.5t-52.5 123.5t-16 136.5q0 120 61 233.5t169.5 187t232.5 73.5
q67 0 124 -19.5t94.5 -50.5t65 -69.5t38.5 -77.5t11 -73t-13 -57l-66 -116zM883 555q6 38 -6.5 79t-42 79.5t-87 63t-133.5 24.5q-70 0 -127.5 -24t-92 -62.5t-52.5 -81.5t-18 -84z" />
    <glyph glyph-name="f" unicode="f" 
d="M213 897h209v104q0 99 30 182t78.5 134.5t106.5 79.5t117 28q60 0 111 -12t75 -23.5t78 -39.5l-53 -283h-21l-49 246q-68 28 -139 28q-205 0 -205 -264v-180h485l-18 -115l-469 19l2 -709l461 -72v-20h-830v20l240 72v707l-209 37v61z" />
    <glyph glyph-name="g" unicode="g" 
d="M1124 774l-264 35v-8q21 -17 43.5 -69.5t22.5 -121.5q0 -144 -105 -233.5t-258 -89.5q-91 0 -162 26l-75 -166h532q119 0 176.5 -35t57.5 -112q0 -92 -86.5 -182t-224.5 -146.5t-279 -56.5q-158 0 -244 65t-86 152q0 76 86 168l47 51h-112v66l147 227q-141 84 -141 256
q0 63 22 119t65 102.5t115.5 73.5t165.5 27q45 0 111 -14.5t113 -43.5l333 21v-111zM571 362q107 0 163.5 64t56.5 170q0 108 -64 179t-184 71q-60 0 -104 -22.5t-66 -58.5t-31.5 -72t-9.5 -72q0 -259 239 -259zM346 41q-55 -112 -55 -199q0 -49 37.5 -82.5t88 -47
t107.5 -13.5q174 0 297 76t123 164q0 102 -158 102h-440z" />
    <glyph glyph-name="h" unicode="h" 
d="M664 0v20l176 60v547q0 95 -56.5 132.5t-156.5 37.5q-64 0 -121.5 -20.5t-95.5 -49.5v-645l176 -62v-20h-484v20l179 60v1261l-209 29v21l358 49l-20 -117v-422l-9 -137q40 62 127.5 110t186.5 48q117 0 185.5 -71t68.5 -187v-584l178 -60v-20h-483z" />
    <glyph glyph-name="i" unicode="i" 
d="M797 1247l-152 -151l-149 151l151 152zM135 0v20l465 70v703l-373 47v20l521 49l-19 -137v-682l420 -70v-20h-1014z" />
    <glyph glyph-name="j" unicode="j" 
d="M938 1247l-152 -151l-149 151l151 152zM887 49q0 -46 -0.5 -71t-3 -67t-7.5 -66t-15 -57.5t-24.5 -53t-36.5 -42t-50.5 -34t-67.5 -19.5t-86 -8q-120 0 -264.5 46t-208.5 104l10 20q34 -16 103 -32.5t159.5 -28.5t190.5 -2.5t172 45.5v1010l-578 47v20l725 49l-18 -137
v-723z" />
    <glyph glyph-name="k" unicode="k" 
d="M707 0v20l-297 62v326l149 112l33 -51t86 -118t130 -158t155.5 -146.5t171.5 -107.5l10 8l-490 657l267 221l192 52v20h-518v-20l178 -50l-375 -331l11 143v643l20 158l-358 -49v-21l209 -47v-1241l-179 -62v-20h605z" />
    <glyph glyph-name="l" unicode="l" 
d="M113 0v20l424 72v1239l-332 47v21l479 49l-20 -135l2 -1221l460 -72v-20h-1013z" />
    <glyph glyph-name="m" unicode="m" 
d="M86 0v20l131 60v711l-176 22v21l281 75l-7 -147q10 21 16.5 33.5t20.5 34.5t28.5 35.5t35 28t47 21.5t57.5 7q74 0 109.5 -39t46.5 -117q40 69 86 112.5t112 43.5q93 0 131.5 -54t38.5 -178v-610l136 -60v-20h-1094zM328 80l129 -60l118 60v614q0 59 -32 81t-92 22
q-31 0 -56.5 -11.5t-36 -21.5t-30.5 -31v-653zM934 80v606q0 111 -117 111q-38 0 -73.5 -20t-57.5 -46v-651l117 -60z" />
    <glyph glyph-name="n" unicode="n" 
d="M690 0v20l166 60v547q0 97 -57 134.5t-164 35.5q-67 -1 -122.5 -22.5t-88.5 -53.5v-637l176 -64v-20h-483v20l178 60v711l-168 22v21l297 75l-6 -153q41 68 127 117t186 49q116 0 185 -71t69 -208v-563l178 -60v-20h-473z" />
    <glyph glyph-name="o" unicode="o" 
d="M631 922q141 0 246 -64.5t155.5 -164.5t50.5 -218q0 -97 -29 -185.5t-83.5 -159.5t-144 -113t-201.5 -42q-96 0 -181 29.5t-152.5 86.5t-107 150t-39.5 210q0 89 35 173.5t96.5 150.5t154.5 106.5t200 40.5zM639 61q144 0 226.5 101t82.5 258q0 197 -100 302t-262 105
q-136 0 -221.5 -95t-85.5 -238q0 -183 100.5 -308t259.5 -125z" />
    <glyph glyph-name="p" unicode="p" 
d="M113 -483v20l137 70v1181l-148 43v21l273 59v-139q133 150 305 150q72 0 141 -26.5t126 -75.5t91.5 -128t34.5 -176q0 -138 -58.5 -263.5t-161 -203.5t-222.5 -78q-46 0 -86 10.5t-73 31t-54 38t-47 43.5l8 -123v-364l432 -70v-20h-698zM379 696v-526q46 -37 113.5 -68.5
t142.5 -31.5q142 0 221.5 108t79.5 281q0 54 -10 102.5t-33 94t-57.5 78.5t-87.5 53t-119 20q-82 0 -140 -29.5t-110 -81.5z" />
    <glyph glyph-name="q" unicode="q" 
d="M489 -483v20l385 70v391l7 141l-20 -19.5l-27 -26t-30.5 -26.5t-38.5 -28.5l-42 -24t-49 -22t-53 -13.5t-60 -6q-70 0 -140.5 29t-130 82.5t-97 139.5t-37.5 190q0 82 31.5 170t86.5 164t142 125t188 49q56 0 102 -11t84 -34.5t62 -43t59 -53.5l105 123l20 -6l-32 -207
v-1083l192 -70v-20h-707zM291 459q0 -95 36 -180.5t107.5 -142t161.5 -56.5q170 0 278 139v500q-25 25 -104.5 55.5t-151.5 30.5q-88 0 -153.5 -28t-102 -77.5t-54 -109t-17.5 -131.5z" />
    <glyph glyph-name="r" unicode="r" 
d="M983 766l-451 18v-692l433 -61v-31h-822v20l260 72v699l-167 18v20l286 80l6 -90l4 -2q19 22 76 48.5t129 27.5l291 4z" />
    <glyph glyph-name="s" unicode="s" 
d="M270 346h21l47 -215q109 -70 250 -70q250 0 250 152q0 70 -60 106t-217 78q-63 17 -104.5 31t-87 36t-71.5 48t-43 64t-17 86q0 105 110 182.5t254 77.5q170 0 363 -111l-50 -238h-20l-76 226q-87 43 -211 43q-235 0 -235 -160q0 -37 23.5 -66.5t72 -51.5t93 -36
t116.5 -32q45 -11 76.5 -21t78 -31t75 -45t50 -63t21.5 -86q0 -59 -20.5 -106t-55.5 -78.5t-84 -52.5t-103.5 -30.5t-115.5 -9.5q-86 0 -162 24t-119 51t-98 71z" />
    <glyph glyph-name="t" unicode="t" 
d="M313 803l-250 24v56l263 18l112 291l25 -4l-25 -291h629l-25 -117l-608 15v-500q0 -57 19 -98.5t47.5 -64t72.5 -36t82 -17t88 -3.5q79 0 177 21.5t143 45.5l10 -20q-86 -65 -202.5 -107.5t-215.5 -42.5q-66 0 -119 11t-88.5 28.5t-61 45t-39.5 54t-22 62.5t-10 63t-2 62
v504z" />
    <glyph glyph-name="u" unicode="u" 
d="M360 911v-663q0 -162 193 -162q86 0 161 37t111 88v582l-290 22v21l434 75l-15 -143v-676l211 -43v-20l-313 -49l-21 174q-54 -71 -140 -126t-185 -55q-275 0 -275 297v523l-176 22v21z" />
    <glyph glyph-name="v" unicode="v" 
d="M246 825l-174 52v20h463v-20l-132 -52l222 -739l221 739l-125 52v20h430v-20l-182 -52l-299 -825h-133z" />
    <glyph glyph-name="w" unicode="w" 
d="M698 782l150 -663l137 700l-233 58v20h403v-20l-82 -52l-166 -825h-141l-135 561v137l-168 -698h-129l-172 840l-92 37v20h446v-20l-233 -52l133 -712l141 624z" />
    <glyph glyph-name="x" unicode="x" 
d="M532 449l-286 376l-174 52v20h475v-20l-131 -52l205 -288l194 288l-125 52v20h430v-20l-182 -52l-272 -350l305 -401l178 -54v-20h-537v20l191 54l-228 313l-217 -313l164 -54v-20h-454v20l163 54z" />
    <glyph glyph-name="y" unicode="y" 
d="M522 0h96l-280 -467v-20l162 -2l512 1314l182 52v20h-471v-20l166 -52l-279 -745l-225 745l131 52v20h-453v-20l175 -52z" />
    <glyph glyph-name="z" unicode="z" 
d="M1030 0v78l21 227h-21l-131 -225l-489 2l618 795v20h-653l-213 21l69 -340h21l49 245h514l-629 -803v-20h844z" />
    <glyph glyph-name="braceleft" unicode="{" 
d="M668 362l-144 152l144 154v583q0 50 20 89t50.5 59.5t59.5 30.5t52 10v41q-36 0 -75 -8t-81 -28t-74.5 -49.5t-53.5 -76.5t-21 -105v-497q0 -70 -34.5 -118t-131.5 -71v-28q94 -26 130 -68.5t36 -118.5v-438q0 -92 43.5 -154t110 -87t151.5 -25v41q-42 0 -81.5 17.5
t-70 62t-30.5 108.5v524z" />
    <glyph glyph-name="bar" unicode="|" 
d="M637 -211h-78v1681h78v-1681z" />
    <glyph glyph-name="braceright" unicode="}" 
d="M551 -162q0 -64 -30.5 -108.5t-70 -62t-81.5 -17.5v-41q85 0 151.5 25t110 87t43.5 154v438q0 76 36 118.5t130 68.5v28q-97 23 -131.5 71t-34.5 118v497q0 58 -21 105t-53.5 76.5t-74.5 49.5t-81 28t-75 8v-41q23 0 52 -10t59.5 -30.5t50.5 -59.5t20 -89v-583l143 -154
l-143 -152v-524z" />
    <glyph glyph-name="asciitilde" unicode="~" 
d="M971 541q-2 -5 -7 -13.5t-21.5 -29.5t-36 -37t-51.5 -29.5t-67 -13.5q-42 0 -74.5 15.5t-56 38l-48.5 44.5t-64 37.5t-90 15.5q-45 0 -86.5 -23.5t-70.5 -60.5t-48.5 -70.5t-30.5 -64.5l29 -18q2 5 7 13.5t21.5 30t36.5 38t53 30t70 13.5q49 0 86 -15.5t61 -38l47.5 -45
t59 -38t82.5 -15.5q43 0 80.5 17.5t60.5 39t44 57t29.5 55.5t19.5 50z" />
    <glyph glyph-name="uni00A0" unicode="&#xa0;" 
 />
    <glyph glyph-name="exclamdown" unicode="&#xa1;" 
d="M610 1262l164 -166l-164 -164l-161 164zM717 -160l-74 953h-61l-60 -953h195z" />
    <glyph glyph-name="cent" unicode="&#xa2;" 
d="M981 786l-70 -292h-20l-43 266q-85 50 -205 53v-737h29q97 0 206 31t177 75l16 -20q-24 -27 -61.5 -56.5t-91 -61t-125 -51.5t-144.5 -20h-6v-92h-61v96q-81 10 -151 42t-125 85t-86.5 132t-31.5 174q0 105 35 194.5t93 149t126 97t140 50.5v109h61v-101h8
q92 0 179.5 -36.5t150.5 -86.5zM582 86v723q-108 -19 -184 -115t-76 -254q0 -69 15.5 -126t40.5 -94.5t60.5 -66t70 -43.5t73.5 -24z" />
    <glyph glyph-name="sterling" unicode="&#xa3;" 
d="M571 645q0 -6 1 -19.5t1 -19.5q0 -158 -49.5 -295t-154.5 -231l557 26l121 252h20l-29 -358h-893v20q78 36 138.5 97t94 131t50 138t16.5 132q0 65 -20 127h-256v62h227q-19 35 -52 80.5l-56.5 77t-41.5 78.5t-18 97q0 85 59 168.5t150.5 135t181.5 51.5q281 0 424 -135
l-67 -437h-23l-53 357q-112 112 -291 112q-110 0 -178 -48t-68 -134q0 -61 24 -118t54.5 -95t65.5 -90.5t51 -99.5h268v-62h-254z" />
    <glyph glyph-name="currency" unicode="&#xa4;" 
d="M1036 698q0 -155 -100 -272l143 -143l-51 -54l-143 144q-120 -99 -273 -99q-151 0 -274 101l-143 -144l-52 54l144 143q-99 120 -99 270q0 153 99 273l-146 145l52 53l147 -147q117 100 272 100q152 0 271 -98l145 145l53 -51l-145 -145q100 -121 100 -275zM279 698
q0 -140 98 -238t237 -98q140 0 238 98t98 238t-98 238t-238 98q-139 0 -237 -98t-98 -238z" />
    <glyph glyph-name="yen" unicode="&#xa5;" 
d="M1178 1362l-181 -66l-323 -743h311v-61h-323v-138h323v-61h-323v-213l362 -60v-20h-842v20l342 60v213h-280v61h280v138h-280v61h270l-338 743l-172 66v20h516v-20l-186 -68l289 -657l270 659l-166 66v20h451v-20z" />
    <glyph glyph-name="brokenbar" unicode="&#xa6;" 
d="M637 735h-78v735h78v-735zM637 -211h-78v680h78v-680z" />
    <glyph glyph-name="section" unicode="&#xa7;" 
d="M426 930v-8q-92 -31 -154.5 -96t-62.5 -146q0 -46 17 -84.5t42.5 -65.5t68.5 -51.5t82.5 -40.5t96.5 -35q37 -12 87.5 -26l82.5 -22.5t67.5 -22t55.5 -28t33.5 -38t13.5 -53.5q0 -52 -39 -87.5t-93 -49t-118 -13.5q-57 0 -124.5 19t-104.5 49l-78 234h-20l-50 -256
q48 -38 157.5 -87t205.5 -49q176 0 278.5 77t102.5 200q0 37 -17 67t-51.5 54t-59.5 36.5t-67 30.5v11q88 15 152.5 90t64.5 161q0 35 -8.5 65t-21 51.5t-33.5 41t-40.5 32t-48.5 25.5t-49.5 20l-52 18t-49.5 18q-34 13 -90.5 31.5t-90.5 31t-70.5 31t-54 43t-17.5 55.5
q0 52 38.5 88t92.5 50t118 14q90 0 203 -49l43 -224h21l49 254q-28 21 -68.5 43.5t-113.5 46t-140 23.5q-84 0 -167.5 -39t-138 -104t-54.5 -133q0 -73 49 -125.5t125 -77.5zM334 715q0 66 37 108t104 78q232 -73 284 -96q92 -39 107 -89q4 -13 4 -28q0 -68 -31 -120.5
t-108 -94.5q-206 48 -301.5 103t-95.5 139z" />
    <glyph glyph-name="dieresis" unicode="&#xa8;" 
d="M334 1202l119 119l118 -119l-118 -119zM676 1202l119 119l120 -119l-120 -119z" />
    <glyph glyph-name="copyright" unicode="&#xa9;" 
d="M612 -135q-150 0 -277 86t-200.5 234t-73.5 323t73.5 323.5t200.5 235t277 86.5t277.5 -86.5t201.5 -235t74 -323.5t-74 -323t-201.5 -234t-277.5 -86zM610 -72q135 0 249.5 77.5t181.5 210.5t67 290q0 158 -67 292t-181.5 211.5t-249.5 77.5t-249 -77.5t-180 -211.5
t-66 -292q0 -157 66 -290t180 -210.5t249 -77.5zM813 520l-27 150q-27 24 -76 43.5t-98 19.5q-104 0 -163.5 -65t-59.5 -170q0 -99 67 -166.5t177 -67.5q67 0 133 21.5t115 56.5l16 -27q-36 -40 -116.5 -75t-176.5 -35q-140 0 -228.5 75.5t-88.5 200.5q0 129 89 217t245 88
q71 0 141 -19.5t119 -53.5l-54 -193h-14z" />
    <glyph glyph-name="ordfeminine" unicode="&#xaa;" 
d="M713 1071h47v57q0 98 -37 143.5t-125 45.5q-49 0 -98 -10.5t-73 -20.5l-24 -10v6l-45 -176h-16l-37 190q7 5 19 12.5t48.5 27t72.5 34.5t85.5 27t92.5 12q77 0 128 -21t76 -61.5t34 -84t9 -103.5v-336l185 -31v-29l-269 -34l-16 118q-38 -48 -110.5 -86.5t-149.5 -38.5
q-108 0 -173 45t-65 127q0 94 113 145.5t328 51.5zM762 870v134h-23q-39 0 -68.5 -1t-76 -4t-80 -11t-66 -20t-50 -33t-17.5 -48q0 -49 49 -71.5t123 -22.5q52 0 117 25.5t92 51.5z" />
    <glyph glyph-name="guillemotleft" unicode="&#xab;" 
d="M324 449l290 436l-18 24l-487 -460l489 -476l18 23zM748 449l290 436l-18 24l-488 -460l490 -476l18 23z" />
    <glyph glyph-name="uni00AD" unicode="&#xad;" 
d="M264 473v74h721v-74h-721z" />
    <glyph glyph-name="registered" unicode="&#xae;" 
d="M612 -135q-150 0 -277 86t-200.5 234t-73.5 323t73.5 323.5t200.5 235t277 86.5t277.5 -86.5t201.5 -235t74 -323.5t-74 -323t-201.5 -234t-277.5 -86zM610 -72q135 0 249.5 77.5t181.5 210.5t67 290q0 158 -67 292t-181.5 211.5t-249.5 77.5t-249 -77.5t-180 -211.5
t-66 -292q0 -157 66 -290t180 -210.5t249 -77.5zM311 778v-12l95 -33v-461l-107 -34v-13h379v13l-174 34v195h108q11 -14 40 -54t44.5 -58.5t47.5 -51t72.5 -61t94.5 -58.5l9 6l-166 256l-86 39v4q77 9 132.5 50.5t55.5 99.5q0 70 -74.5 104.5t-267.5 34.5h-203zM563 514
h-59v219l43 8q207 3 207 -112t-191 -115z" />
    <glyph glyph-name="macron" unicode="&#xaf;" 
d="M500 1108v92h618v-92h-618z" />
    <glyph glyph-name="degree" unicode="&#xb0;" 
d="M614 1384q94 0 160 -65.5t66 -159.5t-66 -159.5t-160 -65.5t-159.5 65.5t-65.5 159.5t65.5 159.5t159.5 65.5zM614 1001q66 0 112 46t46 112t-46 112t-112 46t-111.5 -46t-45.5 -112t45.5 -112t111.5 -46z" />
    <glyph glyph-name="plusminus" unicode="&#xb1;" 
d="M563 686h-350v74h350v227h74v-227h364v-72h-364v-217h-74v215zM233 317v74h748v-74h-748z" />
    <glyph glyph-name="acute" unicode="&#xb4;" 
d="M825 1241l-90 117l-266 -336l31 -31z" />
    <glyph glyph-name="uni00B5" unicode="&#xb5;" 
d="M256 -494l2 1287l-178 22v21l305 75v-663q0 -87 51.5 -121.5t141.5 -34.5q59 0 148 28.5t124 63.5v609l-332 22v21l475 75l-14 -143v-676l211 -43v-20l-313 -49l-21 153q-47 -62 -141.5 -111t-184.5 -49q-55 0 -104 16.5t-72 49.5l-6 -2l27 -94v-414z" />
    <glyph glyph-name="paragraph" unicode="&#xb6;" 
d="M684 1382h244l-21 -151v-1153l277 -58v-20h-973v20l424 58v586q-108 0 -210 43t-170.5 126.5t-68.5 186.5q0 106 69 190t182 128t247 44zM840 78v1247h-140l2 -1247h138z" />
    <glyph glyph-name="periodcentered" unicode="&#xb7;" 
d="M614 344l-180 180l180 181l179 -181z" />
    <glyph glyph-name="cedilla" unicode="&#xb8;" 
d="M705 4l-48 -178l41 6q96 14 156.5 -17.5t60.5 -97.5q0 -52 -39.5 -93.5t-91 -61t-100.5 -19.5q-70 0 -119.5 21.5t-75.5 48.5l17 35q59 -51 133 -51q139 0 139 100q0 39 -32 62.5t-99 17.5l-67 -6l-11 16l27 225z" />
    <glyph glyph-name="ordmasculine" unicode="&#xba;" 
d="M618 1409q175 0 273 -92.5t98 -241.5q0 -97 -40 -179.5t-127 -136.5t-208 -54q-79 0 -148.5 21.5t-124.5 64t-87.5 111t-32.5 155.5q0 139 111.5 245.5t285.5 106.5zM625 782q117 0 183 70.5t66 181.5q0 141 -80.5 216t-211.5 75q-111 0 -179.5 -67t-68.5 -168
q0 -135 75 -221.5t216 -86.5z" />
    <glyph glyph-name="guillemotright" unicode="&#xbb;" 
d="M190 -4l19 -23l489 476l-487 460l-18 -24l290 -436zM614 -4l19 -23l489 476l-487 460l-19 -24l291 -436z" />
    <glyph glyph-name="onequarter" unicode="&#xbc;" 
d="M61 707v32l185 49v279l16 145l-196 -122l-21 24l279 287l26 -6v-607l176 -40v-41h-465zM209 176l-53 53l905 844l51 -51zM618 229l347 506h26v-112l-182 -269l-86 -78h203v95l102 41v-138h176v-65h-176v-133l201 -37v-39h-510v39l207 39v131h-293z" />
    <glyph glyph-name="onehalf" unicode="&#xbd;" 
d="M61 707v32l185 49v279l16 145l-196 -122l-21 24l279 287l26 -6v-607l176 -40v-41h-465zM188 176l-53 53l905 844l52 -51zM690 0v39l299 319q82 86 82 181q0 69 -108 69q-46 0 -90.5 -29.5t-71.5 -82.5l-29 -172h-22l-52 202q51 52 86.5 83t94.5 59t118 28
q90 0 137.5 -39.5t47.5 -109.5q0 -102 -140 -246l-208 -219l266 2l39 158h24l39 -242h-512z" />
    <glyph glyph-name="threequarters" unicode="&#xbe;" 
d="M629 1356l-232 -244h25q104 0 175 -47t71 -145q0 -103 -88 -171.5t-211 -68.5q-91 0 -164.5 27t-116.5 61l43 188h21l41 -161q59 -41 165 -41q97 0 146 48t49 107q0 62 -42 95.5t-118 33.5q-54 0 -110 -24l-11 -6l-28 26l221 285h-275l-40 -182h-21l-55 268l194 -12h361
v-37zM227 176l-53 53l905 844l51 -51zM602 229l346 506h27v-112l-182 -269l-86 -78h202v95l103 41v-138h176v-65h-176v-133l200 -37v-39h-510v39l207 39v131h-293z" />
    <glyph glyph-name="questiondown" unicode="&#xbf;" 
d="M809 1264l164 -166l-164 -164l-162 164zM758 571l35 265h43l49 -265l-195 -188q-81 -78 -108 -142.5t-27 -131.5q0 -95 58 -141t149 -44q62 0 125.5 21.5t101.5 56.5l60 397h20l57 -403q-69 -69 -174.5 -122.5t-234.5 -53.5q-143 0 -223 65.5t-80 198.5q0 90 37 164.5
t120 150.5z" />
    <glyph glyph-name="Agrave" unicode="&#xc0;" 
d="M741 1524l-30 -31l-265 168l91 117zM1079 104l107 -84v-20h-492v20l250 60l-110 387h-451l-107 -387l275 -60v-20h-479v20l106 84l332 1184l-264 74v20h454zM408 559h403l-160 537l-37 219z" />
    <glyph glyph-name="Aacute" unicode="&#xc1;" 
d="M743 1640l-264 -167l-30 30l204 254zM1079 104l107 -84v-20h-492v20l250 60l-110 387h-451l-107 -387l275 -60v-20h-479v20l106 84l332 1184l-264 74v20h454zM408 559h403l-160 537l-37 219z" />
    <glyph glyph-name="Acircumflex" unicode="&#xc2;" 
d="M594 1614l-236 -135l-30 30l266 250l266 -250l-31 -30zM1079 104l107 -84v-20h-492v20l250 60l-110 387h-451l-107 -387l275 -60v-20h-479v20l106 84l332 1184l-264 74v20h454zM408 559h403l-160 537l-37 219z" />
    <glyph glyph-name="Atilde" unicode="&#xc3;" 
d="M465 1614q-31 0 -56 -13t-39 -31t-23.5 -36.5t-12.5 -31.5l-4 -13l-45 20q9 30 25 64.5t40 71t58 60.5t71 24q42 0 75 -11.5t54 -27.5t40.5 -32.5t46.5 -28t61 -11.5q29 0 53.5 12.5t38 31t23 36.5t13.5 30l3 13l49 -19q-64 -219 -193 -219q-39 0 -68.5 11.5t-49 27.5
l-39 32.5t-50.5 28t-71 11.5zM1079 104l107 -84v-20h-492v20l250 60l-110 387h-451l-107 -387l275 -60v-20h-479v20l106 84l332 1184l-264 74v20h454zM408 559h403l-160 537l-37 219z" />
    <glyph glyph-name="Adieresis" unicode="&#xc4;" 
d="M541 1595l-119 -118l-119 118l119 119zM885 1595l-121 -118l-119 118l119 119zM1079 104l107 -84v-20h-492v20l250 60l-110 387h-451l-107 -387l275 -60v-20h-479v20l106 84l332 1184l-264 74v20h454zM408 559h403l-160 537l-37 219z" />
    <glyph glyph-name="Aring" unicode="&#xc5;" 
d="M594 1456q-66 0 -112 46t-46 112t46 112t112 46t112 -46t46 -112t-46 -112t-112 -46zM594 1714q-41 0 -70.5 -29.5t-29.5 -70.5t29.5 -71t70.5 -30t70.5 30t29.5 71t-29.5 70.5t-70.5 29.5zM1079 104l107 -84v-20h-492v20l250 60l-110 387h-451l-107 -387l275 -60v-20
h-479v20l106 84l332 1184l-264 74v20h454zM408 559h403l-160 537l-37 219z" />
    <glyph glyph-name="AE" unicode="&#xc6;" 
d="M440 20l138 60v485h-254l-154 -485l172 -60v-20h-418v20l148 84l372 1184l-264 74v20h658l299 21l-66 -473h-20l-52 366l-227 19l-67 -21v-630l276 6v-107l-276 6v-499h86l247 36l60 273h20l33 -379h-711v20zM354 666h224v630h-25z" />
    <glyph glyph-name="Ccedilla" unicode="&#xc7;" 
d="M694 -37h-26l-37 -137l41 6q96 14 156.5 -17.5t60.5 -97.5q0 -52 -39.5 -93.5t-91.5 -61t-101 -19.5q-70 0 -119 21t-75 49l16 35q59 -51 133 -51q140 0 140 100q0 39 -32 62.5t-99 17.5l-68 -6l-10 16l22 188q-206 45 -326 226.5t-120 472.5q0 136 45 268.5t123 236
t191.5 167t240.5 63.5q47 0 92.5 -7.5t78 -17.5t72 -28.5t59 -29.5l55.5 -32.5l46 -27.5l-61 -498h-23l-47 408q-146 127 -311 127q-86 0 -162 -40.5t-133.5 -115.5t-91 -189.5t-33.5 -252.5q0 -75 11.5 -149.5t34 -149.5t61 -139.5t89 -114.5t121.5 -78.5t154 -28.5
q64 0 113 12t82 35t52 44t40 52l53 252h21l38 -309q-61 -63 -173.5 -115.5t-262.5 -52.5z" />
    <glyph glyph-name="Egrave" unicode="&#xc8;" 
d="M756 1493l30 31l-204 254l-90 -117zM98 20l158 60v1216l-150 66v20h654l299 21l-66 -473h-20l-51 366l-451 19l-80 -19v-573l430 6v-102l-430 6v-553l98 -10l472 36l59 273h20l33 -379h-975v20z" />
    <glyph glyph-name="Eacute" unicode="&#xc9;" 
d="M788 1640l-90 117l-204 -254l30 -30zM98 20l158 60v1216l-150 66v20h654l299 21l-66 -473h-20l-51 366l-451 19l-80 -19v-573l430 6v-102l-430 6v-553l98 -10l472 36l59 273h20l33 -379h-975v20z" />
    <glyph glyph-name="Ecircumflex" unicode="&#xca;" 
d="M639 1614l235 -135l31 30l-266 250l-266 -250l30 -30zM98 20l158 60v1216l-150 66v20h654l299 21l-66 -473h-20l-51 366l-451 19l-80 -19v-573l430 6v-102l-430 6v-553l98 -10l472 36l59 273h20l33 -379h-975v20z" />
    <glyph glyph-name="Edieresis" unicode="&#xcb;" 
d="M348 1595l119 119l119 -119l-119 -118zM690 1595l119 119l121 -119l-121 -118zM98 20l158 60v1216l-150 66v20h654l299 21l-66 -473h-20l-51 366l-451 19l-80 -19v-573l430 6v-102l-430 6v-553l98 -10l472 36l59 273h20l33 -379h-975v20z" />
    <glyph glyph-name="Igrave" unicode="&#xcc;" 
d="M741 1493l31 31l-205 254l-90 -117zM86 0v20l465 84l-4 1194l-400 64v20h943v-20l-402 -64v-1194l463 -84v-20h-1065z" />
    <glyph glyph-name="Iacute" unicode="&#xcd;" 
d="M774 1640l-90 117l-205 -254l31 -30zM86 0v20l465 84l-4 1194l-400 64v20h943v-20l-402 -64v-1194l463 -84v-20h-1065z" />
    <glyph glyph-name="Icircumflex" unicode="&#xce;" 
d="M625 1614l235 -135l31 30l-266 250l-267 -250l31 -30zM86 0v20l465 84l-4 1194l-400 64v20h943v-20l-402 -64v-1194l463 -84v-20h-1065z" />
    <glyph glyph-name="Idieresis" unicode="&#xcf;" 
d="M334 1595l119 119l118 -119l-118 -118zM676 1595l119 119l120 -119l-120 -118zM86 0v20l465 84l-4 1194l-400 64v20h943v-20l-402 -64v-1194l463 -84v-20h-1065z" />
    <glyph glyph-name="Eth" unicode="&#xd0;" 
d="M367 1382q169 0 299 -31t218.5 -88t145.5 -142t82 -188.5t25 -232.5q0 -72 -10 -141t-34 -139.5t-60 -131.5t-91 -114.5t-123.5 -91.5t-161.5 -60t-202 -22h-408v20l158 60v561h-254v104h254v553l-158 64v20h320zM459 59q118 10 209.5 49t151.5 97.5t98.5 138.5
t54.5 166.5t16 187.5q0 154 -40.5 273t-114.5 194.5t-173.5 115t-222.5 42.5l-98 -18v-560h303v-10l-61 -94h-242v-561z" />
    <glyph glyph-name="Ntilde" unicode="&#xd1;" 
d="M969 1741q-1 -5 -3.5 -13.5t-13 -29.5t-23.5 -37t-37.5 -29.5t-53.5 -13.5q-34 0 -61 11.5t-46.5 28t-40.5 32.5t-54 27.5t-75 11.5q-37 0 -71 -24t-58 -60.5t-40 -71t-25 -64.5l45 -20q1 5 3.5 13.5t13 30t24 38t38.5 30t56 13.5q40 0 71 -11.5t50.5 -28l39 -32.5
t49 -27.5t68.5 -11.5q129 0 193 219zM1155 1382v-20l-96 -64v-1298l-68 -27l-635 1031l-55 139v-1063l363 -60v-20h-607v20l138 60v1177l-119 105v20h205l612 -1015l59 -154v1085l-321 64v20h524z" />
    <glyph glyph-name="Ograve" unicode="&#xd2;" 
d="M748 1493l30 31l-205 254l-90 -117zM610 -37q-92 0 -171 29t-135 81t-99.5 120t-69 148.5t-38.5 163.5t-13 169q0 191 70 358.5t200.5 272t292.5 104.5q105 0 190.5 -40.5t142 -108t95 -159t55.5 -190t17 -204.5q0 -220 -64.5 -388.5t-186.5 -262t-286 -93.5zM608 1300
q-60 0 -114.5 -21.5t-105 -69.5t-87 -119t-58.5 -178t-22 -238q0 -107 30 -216.5t82.5 -200t134 -147.5t175.5 -57q169 0 266 168t97 449q0 81 -10.5 162t-39 167.5t-72 151.5t-115 107t-161.5 42z" />
    <glyph glyph-name="Oacute" unicode="&#xd3;" 
d="M780 1640l-90 117l-205 -254l31 -30zM610 -37q-92 0 -171 29t-135 81t-99.5 120t-69 148.5t-38.5 163.5t-13 169q0 191 70 358.5t200.5 272t292.5 104.5q105 0 190.5 -40.5t142 -108t95 -159t55.5 -190t17 -204.5q0 -220 -64.5 -388.5t-186.5 -262t-286 -93.5zM608 1300
q-60 0 -114.5 -21.5t-105 -69.5t-87 -119t-58.5 -178t-22 -238q0 -107 30 -216.5t82.5 -200t134 -147.5t175.5 -57q169 0 266 168t97 449q0 81 -10.5 162t-39 167.5t-72 151.5t-115 107t-161.5 42z" />
    <glyph glyph-name="Ocircumflex" unicode="&#xd4;" 
d="M631 1614l235 -135l31 30l-266 250l-266 -250l30 -30zM610 -37q-92 0 -171 29t-135 81t-99.5 120t-69 148.5t-38.5 163.5t-13 169q0 191 70 358.5t200.5 272t292.5 104.5q105 0 190.5 -40.5t142 -108t95 -159t55.5 -190t17 -204.5q0 -220 -64.5 -388.5t-186.5 -262
t-286 -93.5zM608 1300q-60 0 -114.5 -21.5t-105 -69.5t-87 -119t-58.5 -178t-22 -238q0 -107 30 -216.5t82.5 -200t134 -147.5t175.5 -57q169 0 266 168t97 449q0 81 -10.5 162t-39 167.5t-72 151.5t-115 107t-161.5 42z" />
    <glyph glyph-name="Otilde" unicode="&#xd5;" 
d="M924 1741q-1 -5 -3.5 -13.5t-13 -29.5t-23.5 -37t-37.5 -29.5t-53.5 -13.5q-34 0 -61 11.5t-46.5 28t-40.5 32.5t-54 27.5t-75 11.5q-37 0 -71 -24t-58 -60.5t-40 -71t-25 -64.5l45 -20q1 5 3.5 13.5t13 30t24 38t38.5 30t56 13.5q40 0 71 -11.5t50.5 -28l39 -32.5
t49 -27.5t68.5 -11.5q129 0 193 219zM610 -37q-92 0 -171 29t-135 81t-99.5 120t-69 148.5t-38.5 163.5t-13 169q0 191 70 358.5t200.5 272t292.5 104.5q105 0 190.5 -40.5t142 -108t95 -159t55.5 -190t17 -204.5q0 -220 -64.5 -388.5t-186.5 -262t-286 -93.5zM608 1300
q-60 0 -114.5 -21.5t-105 -69.5t-87 -119t-58.5 -178t-22 -238q0 -107 30 -216.5t82.5 -200t134 -147.5t175.5 -57q169 0 266 168t97 449q0 81 -10.5 162t-39 167.5t-72 151.5t-115 107t-161.5 42z" />
    <glyph glyph-name="Odieresis" unicode="&#xd6;" 
d="M340 1595l119 119l119 -119l-119 -118zM682 1595l119 119l121 -119l-121 -118zM610 -37q-92 0 -171 29t-135 81t-99.5 120t-69 148.5t-38.5 163.5t-13 169q0 191 70 358.5t200.5 272t292.5 104.5q105 0 190.5 -40.5t142 -108t95 -159t55.5 -190t17 -204.5
q0 -220 -64.5 -388.5t-186.5 -262t-286 -93.5zM608 1300q-60 0 -114.5 -21.5t-105 -69.5t-87 -119t-58.5 -178t-22 -238q0 -107 30 -216.5t82.5 -200t134 -147.5t175.5 -57q169 0 266 168t97 449q0 81 -10.5 162t-39 167.5t-72 151.5t-115 107t-161.5 42z" />
    <glyph glyph-name="multiply" unicode="&#xd7;" 
d="M602 602l-305 -305l-49 49l305 305l-291 291l53 51l291 -291l316 316l51 -49l-318 -318l314 -311l-51 -53z" />
    <glyph glyph-name="Oslash" unicode="&#xd8;" 
d="M899 1333q125 -87 186.5 -256.5t61.5 -369.5q0 -220 -64.5 -388.5t-186.5 -262t-286 -93.5q-121 0 -217 49l-65 -168h-99l84 222q-115 96 -172 260.5t-57 347.5q0 191 70 358.5t200.5 272t292.5 104.5q94 0 170 -31l51 133h99zM221 674q0 -123 39 -248.5t109 -218.5
l403 1050q-75 43 -164 43q-60 0 -114.5 -21.5t-105 -69.5t-87 -119t-58.5 -178t-22 -238zM643 53q169 0 266 168t97 449q0 148 -38 293t-122 235l-408 -1065q93 -80 205 -80z" />
    <glyph glyph-name="Ugrave" unicode="&#xd9;" 
d="M731 1493l31 31l-205 254l-90 -117zM156 1296l-115 66v20h377v-20l-123 -66v-821q0 -191 91 -305.5t239 -114.5q90 0 154 32t100 92t51.5 135t15.5 173v801l-348 74v20h492l-21 -100v-776q0 -119 -27.5 -216.5t-82.5 -171t-143.5 -114.5t-203.5 -41q-111 0 -195 35
t-132.5 88.5t-78.5 128t-40 141.5t-10 142v798z" />
    <glyph glyph-name="Uacute" unicode="&#xda;" 
d="M764 1640l-90 117l-205 -254l31 -30zM156 1296l-115 66v20h377v-20l-123 -66v-821q0 -191 91 -305.5t239 -114.5q90 0 154 32t100 92t51.5 135t15.5 173v801l-348 74v20h492l-21 -100v-776q0 -119 -27.5 -216.5t-82.5 -171t-143.5 -114.5t-203.5 -41q-111 0 -195 35
t-132.5 88.5t-78.5 128t-40 141.5t-10 142v798z" />
    <glyph glyph-name="Ucircumflex" unicode="&#xdb;" 
d="M614 1614l236 -135l31 30l-267 250l-266 -250l31 -30zM156 1296l-115 66v20h377v-20l-123 -66v-821q0 -191 91 -305.5t239 -114.5q90 0 154 32t100 92t51.5 135t15.5 173v801l-348 74v20h492l-21 -100v-776q0 -119 -27.5 -216.5t-82.5 -171t-143.5 -114.5t-203.5 -41
q-111 0 -195 35t-132.5 88.5t-78.5 128t-40 141.5t-10 142v798z" />
    <glyph glyph-name="Udieresis" unicode="&#xdc;" 
d="M324 1595l118 119l119 -119l-119 -118zM666 1595l118 119l121 -119l-121 -118zM156 1296l-115 66v20h377v-20l-123 -66v-821q0 -191 91 -305.5t239 -114.5q90 0 154 32t100 92t51.5 135t15.5 173v801l-348 74v20h492l-21 -100v-776q0 -119 -27.5 -216.5t-82.5 -171
t-143.5 -114.5t-203.5 -41q-111 0 -195 35t-132.5 88.5t-78.5 128t-40 141.5t-10 142v798z" />
    <glyph glyph-name="Yacute" unicode="&#xdd;" 
d="M768 1640l-90 117l-205 -254l31 -30zM176 1296l-172 66v20h516v-20l-186 -68l289 -657l270 659l-166 66v20h451v-20l-181 -66l-335 -770v-446l362 -60v-20h-842v20l342 60v450z" />
    <glyph glyph-name="Thorn" unicode="&#xde;" 
d="M596 1382v-20l-199 -64v-194h43q65 0 121 -3t126 -14t126.5 -28.5t112.5 -49t93.5 -73.5t61 -104.5t23.5 -139.5q0 -95 -34.5 -171t-91.5 -124.5t-133.5 -80.5t-157.5 -44t-167 -10l-123 2v-184l281 -60v-20h-678v20l260 60v1218l-199 64v20h535zM397 1018v-684h111
q214 0 331 88.5t117 251.5q0 86 -29 152t-75 105t-111 63.5t-128 33t-136 8.5z" />
    <glyph glyph-name="germandbls" unicode="&#xdf;" 
d="M664 317h16l37 -200q22 -33 73 -46.5t97 -13.5q200 0 200 156q0 30 -7 53.5t-26 43t-35 32t-52.5 28t-58.5 23.5l-72 25q-117 39 -174.5 88.5t-57.5 134.5q0 53 16.5 93t55 71t62 44.5t77.5 39.5q11 5 16 8q80 38 115 80.5t35 120.5q0 43 -17.5 83.5t-52.5 76.5
t-96.5 57.5t-140.5 21.5q-266 0 -266 -301v-956l194 -60v-20h-481v20l158 60v727l-168 37v53h168v84q0 204 114.5 324t298.5 120q102 0 184 -25.5t132 -68t77 -95t27 -108.5q0 -70 -16.5 -120t-54 -83.5t-63 -48.5t-78.5 -39q-9 -4 -13 -6q-103 -46 -131 -68
q-45 -35 -45 -85q0 -69 56 -108t167 -74q119 -38 171 -68q126 -73 126 -186q0 -47 -18.5 -91.5t-56.5 -85t-105.5 -65.5t-155.5 -25q-74 0 -156.5 39.5t-105.5 75.5z" />
    <glyph glyph-name="agrave" unicode="&#xe0;" 
d="M750 991l30 31l-266 336l-90 -117zM721 459h59v88q0 139 -45.5 204.5t-154.5 65.5q-60 0 -120 -14.5t-90 -28.5l-30 -14l-53 -234h-21l-41 246l22 16t58 36t87.5 46t104 36t113.5 16q76 0 131 -19.5t87.5 -51t51.5 -80.5t25 -97.5t6 -112.5v-469l228 -43v-20l-326 -47
l-20 161q-44 -65 -134.5 -117.5t-187.5 -52.5q-131 0 -210 59.5t-79 166.5q0 123 138 191.5t401 68.5zM782 188v199q-205 0 -303 -23q-168 -39 -168 -147q0 -72 60.5 -105.5t152.5 -33.5q64 0 144 36.5t114 73.5z" />
    <glyph glyph-name="aacute" unicode="&#xe1;" 
d="M788 1241l-90 117l-266 -336l31 -31zM721 459h59v88q0 139 -45.5 204.5t-154.5 65.5q-60 0 -120 -14.5t-90 -28.5l-30 -14l-53 -234h-21l-41 246l22 16t58 36t87.5 46t104 36t113.5 16q76 0 131 -19.5t87.5 -51t51.5 -80.5t25 -97.5t6 -112.5v-469l228 -43v-20l-326 -47
l-20 161q-44 -65 -134.5 -117.5t-187.5 -52.5q-131 0 -210 59.5t-79 166.5q0 123 138 191.5t401 68.5zM782 188v199q-205 0 -303 -23q-168 -39 -168 -147q0 -72 60.5 -105.5t152.5 -33.5q64 0 144 36.5t114 73.5z" />
    <glyph glyph-name="acircumflex" unicode="&#xe2;" 
d="M569 1190l242 -180l35 30l-277 316l-276 -316l35 -30zM721 459h59v88q0 139 -45.5 204.5t-154.5 65.5q-60 0 -120 -14.5t-90 -28.5l-30 -14l-53 -234h-21l-41 246l22 16t58 36t87.5 46t104 36t113.5 16q76 0 131 -19.5t87.5 -51t51.5 -80.5t25 -97.5t6 -112.5v-469
l228 -43v-20l-326 -47l-20 161q-44 -65 -134.5 -117.5t-187.5 -52.5q-131 0 -210 59.5t-79 166.5q0 123 138 191.5t401 68.5zM782 188v199q-205 0 -303 -23q-168 -39 -168 -147q0 -72 60.5 -105.5t152.5 -33.5q64 0 144 36.5t114 73.5z" />
    <glyph glyph-name="atilde" unicode="&#xe3;" 
d="M883 1315q-2 -5 -6 -13.5t-17.5 -29.5t-30 -37t-43 -29.5t-55.5 -13.5q-34 0 -61 15.5t-46.5 38l-40 44.5t-53.5 37.5t-75 15.5q-37 0 -71 -23.5t-58.5 -60t-40.5 -71t-25 -64.5l25 -18l5.5 13.5t17.5 30t30.5 38t43.5 30t58 13.5q40 0 71 -15.5t51 -38l39.5 -45t49 -38
t68.5 -15.5q128 0 192 219zM721 459h59v88q0 139 -45.5 204.5t-154.5 65.5q-60 0 -120 -14.5t-90 -28.5l-30 -14l-53 -234h-21l-41 246l22 16t58 36t87.5 46t104 36t113.5 16q76 0 131 -19.5t87.5 -51t51.5 -80.5t25 -97.5t6 -112.5v-469l228 -43v-20l-326 -47l-20 161
q-44 -65 -134.5 -117.5t-187.5 -52.5q-131 0 -210 59.5t-79 166.5q0 123 138 191.5t401 68.5zM782 188v199q-205 0 -303 -23q-168 -39 -168 -147q0 -72 60.5 -105.5t152.5 -33.5q64 0 144 36.5t114 73.5z" />
    <glyph glyph-name="adieresis" unicode="&#xe4;" 
d="M279 1202l118 119l119 -119l-119 -119zM621 1202l118 119l121 -119l-121 -119zM721 459h59v88q0 139 -45.5 204.5t-154.5 65.5q-60 0 -120 -14.5t-90 -28.5l-30 -14l-53 -234h-21l-41 246l22 16t58 36t87.5 46t104 36t113.5 16q76 0 131 -19.5t87.5 -51t51.5 -80.5
t25 -97.5t6 -112.5v-469l228 -43v-20l-326 -47l-20 161q-44 -65 -134.5 -117.5t-187.5 -52.5q-131 0 -210 59.5t-79 166.5q0 123 138 191.5t401 68.5zM782 188v199q-205 0 -303 -23q-168 -39 -168 -147q0 -72 60.5 -105.5t152.5 -33.5q64 0 144 36.5t114 73.5z" />
    <glyph glyph-name="aring" unicode="&#xe5;" 
d="M569 1358q66 0 112 -46t46 -112t-46 -112t-112 -46t-111.5 46t-45.5 112t45.5 112t111.5 46zM569 1100q41 0 71 29.5t30 70.5t-30 70.5t-71 29.5t-70.5 -29.5t-29.5 -70.5t29.5 -70.5t70.5 -29.5zM721 459h59v88q0 139 -45.5 204.5t-154.5 65.5q-60 0 -120 -14.5
t-90 -28.5l-30 -14l-53 -234h-21l-41 246l22 16t58 36t87.5 46t104 36t113.5 16q76 0 131 -19.5t87.5 -51t51.5 -80.5t25 -97.5t6 -112.5v-469l228 -43v-20l-326 -47l-20 161q-44 -65 -134.5 -117.5t-187.5 -52.5q-131 0 -210 59.5t-79 166.5q0 123 138 191.5t401 68.5z
M782 188v199q-205 0 -303 -23q-168 -39 -168 -147q0 -72 60.5 -105.5t152.5 -33.5q64 0 144 36.5t114 73.5z" />
    <glyph glyph-name="ae" unicode="&#xe6;" 
d="M688 426q0 -91 25.5 -161.5t66.5 -109.5t86 -59t90 -20q59 0 105.5 9t84.5 30.5t51 31t44 35.5l16 -18q-20 -29 -47 -57.5t-70 -61t-102.5 -52.5t-124.5 -20q-190 0 -276 168q-50 -64 -140.5 -116t-181.5 -52q-118 0 -182.5 55.5t-64.5 170.5q0 124 124.5 212.5
t311.5 88.5h63v47q0 137 -44 203.5t-140 66.5q-57 0 -107 -14.5t-71 -28.5l-21 -14l-53 -234h-20l-41 246q6 6 17.5 16t48.5 36t75 46t94 36t109 16q114 0 164 -47t75 -142h4q47 87 119 138t164 51q73 0 125 -34.5t74.5 -86t29.5 -109.5t-1.5 -107.5t-26.5 -78.5l-49 -80
h-404zM1065 510q8 41 9.5 80t-6.5 78t-26.5 68t-53.5 47t-85 18q-85 0 -149 -91t-64 -206zM565 184v244q-54 0 -114 -11.5t-119 -35t-97 -66.5t-38 -98q0 -139 151 -139q65 0 124.5 30t92.5 76z" />
    <glyph glyph-name="ccedilla" unicode="&#xe7;" 
d="M649 -27h-14l-39 -147l41 6q96 14 156.5 -17.5t60.5 -97.5q0 -52 -39.5 -93.5t-91 -61t-100.5 -19.5q-70 0 -119.5 21.5t-75.5 48.5l16 35q59 -51 134 -51q139 0 139 100q0 39 -32 62.5t-99 17.5l-68 -6l-10 16l22 199q-152 34 -247 147.5t-95 288.5q0 119 44.5 217
t116.5 158t155.5 92.5t167.5 32.5q152 0 309 -123l-70 -293h-20l-43 266q-110 45 -219 45q-145 0 -226 -90.5t-81 -273.5q0 -73 17 -133t46 -100t64.5 -69t76.5 -45t76.5 -23t69.5 -7q104 0 208.5 30.5t174.5 75.5l16 -20q-54 -62 -176 -125.5t-246 -63.5z" />
    <glyph glyph-name="egrave" unicode="&#xe8;" 
d="M834 991l30 31l-266 336l-90 -117zM317 471q0 -95 26 -168.5t64.5 -114.5t88.5 -68t91.5 -35.5t80.5 -8.5q124 0 228.5 35t158.5 71l16 -18q-25 -27 -57 -53.5t-84.5 -60.5t-122 -55.5t-141.5 -21.5q-101 0 -183 25.5t-136 68t-90.5 101.5t-52.5 123.5t-16 136.5
q0 120 61 233.5t169.5 187t232.5 73.5q67 0 124 -19.5t94.5 -50.5t65 -69.5t38.5 -77.5t11 -73t-13 -57l-66 -116zM883 555q6 38 -6.5 79t-42 79.5t-87 63t-133.5 24.5q-70 0 -127.5 -24t-92 -62.5t-52.5 -81.5t-18 -84z" />
    <glyph glyph-name="eacute" unicode="&#xe9;" 
d="M872 1241l-90 117l-266 -336l31 -31zM317 471q0 -95 26 -168.5t64.5 -114.5t88.5 -68t91.5 -35.5t80.5 -8.5q124 0 228.5 35t158.5 71l16 -18q-25 -27 -57 -53.5t-84.5 -60.5t-122 -55.5t-141.5 -21.5q-101 0 -183 25.5t-136 68t-90.5 101.5t-52.5 123.5t-16 136.5
q0 120 61 233.5t169.5 187t232.5 73.5q67 0 124 -19.5t94.5 -50.5t65 -69.5t38.5 -77.5t11 -73t-13 -57l-66 -116zM883 555q6 38 -6.5 79t-42 79.5t-87 63t-133.5 24.5q-70 0 -127.5 -24t-92 -62.5t-52.5 -81.5t-18 -84z" />
    <glyph glyph-name="ecircumflex" unicode="&#xea;" 
d="M653 1190l242 -180l35 30l-277 316l-276 -316l35 -30zM317 471q0 -95 26 -168.5t64.5 -114.5t88.5 -68t91.5 -35.5t80.5 -8.5q124 0 228.5 35t158.5 71l16 -18q-25 -27 -57 -53.5t-84.5 -60.5t-122 -55.5t-141.5 -21.5q-101 0 -183 25.5t-136 68t-90.5 101.5t-52.5 123.5
t-16 136.5q0 120 61 233.5t169.5 187t232.5 73.5q67 0 124 -19.5t94.5 -50.5t65 -69.5t38.5 -77.5t11 -73t-13 -57l-66 -116zM883 555q6 38 -6.5 79t-42 79.5t-87 63t-133.5 24.5q-70 0 -127.5 -24t-92 -62.5t-52.5 -81.5t-18 -84z" />
    <glyph glyph-name="edieresis" unicode="&#xeb;" 
d="M362 1202l119 119l119 -119l-119 -119zM705 1202l118 119l121 -119l-121 -119zM317 471q0 -95 26 -168.5t64.5 -114.5t88.5 -68t91.5 -35.5t80.5 -8.5q124 0 228.5 35t158.5 71l16 -18q-25 -27 -57 -53.5t-84.5 -60.5t-122 -55.5t-141.5 -21.5q-101 0 -183 25.5t-136 68
t-90.5 101.5t-52.5 123.5t-16 136.5q0 120 61 233.5t169.5 187t232.5 73.5q67 0 124 -19.5t94.5 -50.5t65 -69.5t38.5 -77.5t11 -73t-13 -57l-66 -116zM883 555q6 38 -6.5 79t-42 79.5t-87 63t-133.5 24.5q-70 0 -127.5 -24t-92 -62.5t-52.5 -81.5t-18 -84z" />
    <glyph glyph-name="igrave" unicode="&#xec;" 
d="M758 991l30 31l-266 336l-90 -117zM135 0v20l465 70v703l-373 47v20l521 49l-19 -137v-682l420 -70v-20h-1014z" />
    <glyph glyph-name="iacute" unicode="&#xed;" 
d="M840 1241l-90 117l-267 -336l31 -31zM135 0v20l465 70v703l-373 47v20l521 49l-19 -137v-682l420 -70v-20h-1014z" />
    <glyph glyph-name="icircumflex" unicode="&#xee;" 
d="M621 1190l241 -180l35 30l-276 316l-277 -316l35 -30zM135 0v20l465 70v703l-373 47v20l521 49l-19 -137v-682l420 -70v-20h-1014z" />
    <glyph glyph-name="idieresis" unicode="&#xef;" 
d="M330 1202l119 119l118 -119l-118 -119zM672 1202l119 119l120 -119l-120 -119zM135 0v20l465 70v703l-373 47v20l521 49l-19 -137v-682l420 -70v-20h-1014z" />
    <glyph glyph-name="eth" unicode="&#xf0;" 
d="M1055 551q2 -160 -54.5 -293t-155.5 -209t-218 -76q-207 0 -339 117t-132 324q0 91 34.5 182.5t91.5 163.5t139 117t171 45q174 0 276 -113l4 4q-60 171 -217 322l-229 -107l-29 70l195 90q-134 106 -299 166l20 49q87 -9 188.5 -52t196.5 -114l205 96l29 -71l-168 -78
q130 -116 209 -275.5t82 -357.5zM602 72q112 0 188 73t107 197.5t16 282.5q-69 97 -140.5 138.5t-160.5 41.5q-67 0 -123 -18.5t-101.5 -58t-71 -108t-25.5 -161.5q0 -87 27 -161t71 -123t99.5 -76t113.5 -27z" />
    <glyph glyph-name="ntilde" unicode="&#xf1;" 
d="M950 1315l-5.5 -13.5t-17.5 -29.5t-30 -37t-42.5 -29.5t-55.5 -13.5q-34 0 -61 15.5t-46.5 38t-40.5 44.5t-54 37.5t-75 15.5q-48 0 -91.5 -42t-67 -88t-35.5 -89l24 -18q2 5 6 13.5t18 30t30 38t43.5 30t58.5 13.5q40 0 71 -15.5t50.5 -38l39 -45t49 -38t68.5 -15.5
q129 0 193 219zM690 0v20l166 60v547q0 97 -57 134.5t-164 35.5q-67 -1 -122.5 -22.5t-88.5 -53.5v-637l176 -64v-20h-483v20l178 60v711l-168 22v21l297 75l-6 -153q41 68 127 117t186 49q116 0 185 -71t69 -208v-563l178 -60v-20h-473z" />
    <glyph glyph-name="ograve" unicode="&#xf2;" 
d="M793 991l30 31l-266 336l-90 -117zM631 922q141 0 246 -64.5t155.5 -164.5t50.5 -218q0 -97 -29 -185.5t-83.5 -159.5t-144 -113t-201.5 -42q-96 0 -181 29.5t-152.5 86.5t-107 150t-39.5 210q0 89 35 173.5t96.5 150.5t154.5 106.5t200 40.5zM639 61q144 0 226.5 101
t82.5 258q0 197 -100 302t-262 105q-136 0 -221.5 -95t-85.5 -238q0 -183 100.5 -308t259.5 -125z" />
    <glyph glyph-name="oacute" unicode="&#xf3;" 
d="M831 1241l-90 117l-266 -336l31 -31zM631 922q141 0 246 -64.5t155.5 -164.5t50.5 -218q0 -97 -29 -185.5t-83.5 -159.5t-144 -113t-201.5 -42q-96 0 -181 29.5t-152.5 86.5t-107 150t-39.5 210q0 89 35 173.5t96.5 150.5t154.5 106.5t200 40.5zM639 61q144 0 226.5 101
t82.5 258q0 197 -100 302t-262 105q-136 0 -221.5 -95t-85.5 -238q0 -183 100.5 -308t259.5 -125z" />
    <glyph glyph-name="ocircumflex" unicode="&#xf4;" 
d="M612 1190l242 -180l35 30l-277 316l-276 -316l35 -30zM631 922q141 0 246 -64.5t155.5 -164.5t50.5 -218q0 -97 -29 -185.5t-83.5 -159.5t-144 -113t-201.5 -42q-96 0 -181 29.5t-152.5 86.5t-107 150t-39.5 210q0 89 35 173.5t96.5 150.5t154.5 106.5t200 40.5zM639 61
q144 0 226.5 101t82.5 258q0 197 -100 302t-262 105q-136 0 -221.5 -95t-85.5 -238q0 -183 100.5 -308t259.5 -125z" />
    <glyph glyph-name="otilde" unicode="&#xf5;" 
d="M926 1315q-2 -5 -6 -13.5t-17.5 -29.5t-30 -37t-43 -29.5t-55.5 -13.5q-34 0 -61 15.5t-46.5 38l-40 44.5t-53.5 37.5t-75 15.5q-37 0 -71 -23.5t-58.5 -60t-40.5 -71t-25 -64.5l25 -18l5.5 13.5t17.5 30t30.5 38t43.5 30t58 13.5q40 0 71 -15.5t51 -38l39.5 -45t49 -38
t68.5 -15.5q128 0 192 219zM631 922q141 0 246 -64.5t155.5 -164.5t50.5 -218q0 -97 -29 -185.5t-83.5 -159.5t-144 -113t-201.5 -42q-96 0 -181 29.5t-152.5 86.5t-107 150t-39.5 210q0 89 35 173.5t96.5 150.5t154.5 106.5t200 40.5zM639 61q144 0 226.5 101t82.5 258
q0 197 -100 302t-262 105q-136 0 -221.5 -95t-85.5 -238q0 -183 100.5 -308t259.5 -125z" />
    <glyph glyph-name="odieresis" unicode="&#xf6;" 
d="M322 1202l118 119l119 -119l-119 -119zM664 1202l118 119l121 -119l-121 -119zM631 922q141 0 246 -64.5t155.5 -164.5t50.5 -218q0 -97 -29 -185.5t-83.5 -159.5t-144 -113t-201.5 -42q-96 0 -181 29.5t-152.5 86.5t-107 150t-39.5 210q0 89 35 173.5t96.5 150.5
t154.5 106.5t200 40.5zM639 61q144 0 226.5 101t82.5 258q0 197 -100 302t-262 105q-136 0 -221.5 -95t-85.5 -238q0 -183 100.5 -308t259.5 -125z" />
    <glyph glyph-name="divide" unicode="&#xf7;" 
d="M614 813l-118 119l118 119l117 -119zM170 614v74h872v-74h-872zM614 250l-118 119l118 118l117 -118z" />
    <glyph glyph-name="oslash" unicode="&#xf8;" 
d="M868 860q101 -59 156 -162t55 -223q0 -97 -29 -185.5t-83.5 -159.5t-144 -113t-201.5 -42q-116 0 -207 39l-45 -82h-99l66 123q-90 58 -142.5 158.5t-52.5 237.5q0 89 35 173.5t96.5 150.5t154.5 106.5t200 40.5q88 0 161 -25l46 82h98zM274 494q0 -98 32 -184t89 -146
l340 635q-70 28 -153 28q-136 0 -222 -95t-86 -238zM635 61q144 0 226.5 101t82.5 258q0 224 -133 334l-348 -645q76 -48 172 -48z" />
    <glyph glyph-name="ugrave" unicode="&#xf9;" 
d="M772 991l31 31l-266 336l-91 -117zM360 911v-663q0 -162 193 -162q86 0 161 37t111 88v582l-290 22v21l434 75l-15 -143v-676l211 -43v-20l-313 -49l-21 174q-54 -71 -140 -126t-185 -55q-275 0 -275 297v523l-176 22v21z" />
    <glyph glyph-name="uacute" unicode="&#xfa;" 
d="M811 1241l-90 117l-266 -336l30 -31zM360 911v-663q0 -162 193 -162q86 0 161 37t111 88v582l-290 22v21l434 75l-15 -143v-676l211 -43v-20l-313 -49l-21 174q-54 -71 -140 -126t-185 -55q-275 0 -275 297v523l-176 22v21z" />
    <glyph glyph-name="ucircumflex" unicode="&#xfb;" 
d="M592 1190l242 -180l34 30l-276 316l-277 -316l35 -30zM360 911v-663q0 -162 193 -162q86 0 161 37t111 88v582l-290 22v21l434 75l-15 -143v-676l211 -43v-20l-313 -49l-21 174q-54 -71 -140 -126t-185 -55q-275 0 -275 297v523l-176 22v21z" />
    <glyph glyph-name="udieresis" unicode="&#xfc;" 
d="M301 1202l119 119l119 -119l-119 -119zM643 1202l119 119l121 -119l-121 -119zM360 911v-663q0 -162 193 -162q86 0 161 37t111 88v582l-290 22v21l434 75l-15 -143v-676l211 -43v-20l-313 -49l-21 174q-54 -71 -140 -126t-185 -55q-275 0 -275 297v523l-176 22v21z" />
    <glyph glyph-name="yacute" unicode="&#xfd;" 
d="M846 1241l-90 117l-267 -336l31 -31zM522 0h96l-280 -467v-20l162 -2l512 1314l182 52v20h-471v-20l166 -52l-279 -745l-225 745l131 52v20h-453v-20l175 -52z" />
    <glyph glyph-name="thorn" unicode="&#xfe;" 
d="M371 772q133 150 309 150q72 0 141 -26.5t126 -75.5t91.5 -128t34.5 -176q0 -138 -58.5 -263.5t-161 -203.5t-222.5 -78q-46 0 -86 10.5t-73 31t-54 38t-47 43.5l8 -123v-364l432 -70v-20h-698v20l137 70v1722l-201 23v20l342 76l-12 -143v-396l-8 -135v-2zM379 696v-526
q46 -37 113.5 -68.5t142.5 -31.5q142 0 221.5 108t79.5 281q0 54 -10 102.5t-33 94t-57.5 78.5t-87.5 53t-119 20q-82 0 -140 -29.5t-110 -81.5z" />
    <glyph glyph-name="ydieresis" unicode="&#xff;" 
d="M336 1202l119 119l118 -119l-118 -119zM678 1202l119 119l121 -119l-121 -119zM522 0h96l-280 -467v-20l162 -2l512 1314l182 52v20h-471v-20l166 -52l-279 -745l-225 745l131 52v20h-453v-20l175 -52z" />
    <glyph glyph-name="OE" unicode="&#x152;" 
d="M731 1305q101 -78 162 -243t68 -329h124v-102h-368v-555l379 30l59 273h21l32 -379h-581q-64 -25 -129 -25q-117 0 -207 60.5t-141.5 162t-77 220.5t-25.5 250q0 99 19 201t59 199.5t95.5 173.5t135.5 122.5t172 46.5q72 0 119 -29h252l301 21l-65 -467h-21l-51 360
l-332 13v-4zM582 63v670h241q-3 74 -14 146.5t-35.5 151.5t-60 138t-93 97.5t-128.5 38.5q-133 0 -219.5 -158.5t-86.5 -478.5q0 -110 19.5 -216.5t57.5 -197.5t102 -147t145 -56q48 0 72 12z" />
    <glyph glyph-name="oe" unicode="&#x153;" 
d="M451 922q79 0 144.5 -37.5t96.5 -83.5h4q32 40 101.5 80.5t154.5 40.5q63 0 112 -20.5t76 -53t43.5 -72.5t19 -80t-3.5 -75t-19 -58l-60 -112l-461 12q0 -187 76 -291t197 -104q155 0 235 90l19 -13q-15 -55 -92 -112.5t-187 -57.5q-128 0 -219 91q-30 -36 -88 -63.5
t-143 -27.5q-178 0 -296 124t-118 343q0 121 47 229t142.5 179.5t218.5 71.5zM453 63q103 0 170 80q-41 54 -67.5 165t-20.5 210l149 17q0 135 -70.5 213.5t-177.5 78.5q-69 0 -122 -29t-83 -78.5t-44.5 -108t-14.5 -124.5q0 -112 30.5 -206.5t96 -156t154.5 -61.5z
M1092 543q4 30 5.5 54t0 58t-13 59.5t-31.5 49.5t-57.5 36.5t-88.5 12.5q-95 0 -172 -80q51 -81 60 -190h297z" />
    <glyph glyph-name="Ydieresis" unicode="&#x178;" 
d="M328 1595l118 119l119 -119l-119 -118zM670 1595l118 119l121 -119l-121 -118zM176 1296l-172 66v20h516v-20l-186 -68l289 -657l270 659l-166 66v20h451v-20l-181 -66l-335 -770v-446l362 -60v-20h-842v20l342 60v450z" />
    <glyph glyph-name="circumflex" unicode="&#x2c6;" 
d="M614 1190l242 -180l35 30l-277 316l-276 -316l35 -30z" />
    <glyph glyph-name="tilde" unicode="&#x2dc;" 
d="M911 1315l-5.5 -13.5t-17.5 -29.5t-30 -37t-42.5 -29.5t-55.5 -13.5q-34 0 -61 15.5t-46.5 38t-40.5 44.5t-54 37.5t-75 15.5q-48 0 -91.5 -42t-67 -88t-35.5 -89l24 -18q2 5 6 13.5t18 30t30 38t43.5 30t58.5 13.5q40 0 71 -15.5t51 -38l39.5 -45t49 -38t68.5 -15.5
q128 0 192 219z" />
    <glyph glyph-name="uni2000" unicode="&#x2000;" horiz-adv-x="889" 
 />
    <glyph glyph-name="uni2001" unicode="&#x2001;" horiz-adv-x="1778" 
 />
    <glyph glyph-name="uni2002" unicode="&#x2002;" horiz-adv-x="889" 
 />
    <glyph glyph-name="uni2003" unicode="&#x2003;" horiz-adv-x="1778" 
 />
    <glyph glyph-name="uni2004" unicode="&#x2004;" horiz-adv-x="592" 
 />
    <glyph glyph-name="uni2005" unicode="&#x2005;" horiz-adv-x="444" 
 />
    <glyph glyph-name="uni2006" unicode="&#x2006;" horiz-adv-x="296" 
 />
    <glyph glyph-name="uni2007" unicode="&#x2007;" horiz-adv-x="296" 
 />
    <glyph glyph-name="uni2008" unicode="&#x2008;" horiz-adv-x="222" 
 />
    <glyph glyph-name="uni2009" unicode="&#x2009;" horiz-adv-x="355" 
 />
    <glyph glyph-name="uni200A" unicode="&#x200a;" horiz-adv-x="98" 
 />
    <glyph glyph-name="uni2010" unicode="&#x2010;" 
d="M264 473v74h721v-74h-721z" />
    <glyph glyph-name="uni2011" unicode="&#x2011;" 
d="M264 473v74h721v-74h-721z" />
    <glyph glyph-name="figuredash" unicode="&#x2012;" 
d="M264 473v74h721v-74h-721z" />
    <glyph glyph-name="endash" unicode="&#x2013;" 
d="M162 473v74h925v-74h-925z" />
    <glyph glyph-name="emdash" unicode="&#x2014;" 
d="M-4 473v74h1237v-74h-1237z" />
    <glyph glyph-name="quoteleft" unicode="&#x2018;" 
d="M735 983l-160 -160q-73 66 -108 115t-35 113q0 66 17.5 123t51 102t62 73.5t70.5 63.5l22 -22q-84 -91 -84 -205q0 -70 55 -127t109 -76z" />
    <glyph glyph-name="quoteright" unicode="&#x2019;" 
d="M432 1280l160 160q73 -66 108 -115t35 -113q0 -54 -13 -102.5t-31 -83.5t-47.5 -70.5t-52.5 -57t-56 -48.5l-23 22q84 91 84 205q0 70 -55 127t-109 76z" />
    <glyph glyph-name="quotesinglbase" unicode="&#x201a;" 
d="M592 295q72 -64 107.5 -119t35.5 -129q0 -239 -200 -403l-23 22q39 42 61.5 102t22.5 123q0 51 -17 95.5t-44 74t-53 48t-50 26.5z" />
    <glyph glyph-name="quotedblleft" unicode="&#x201c;" 
d="M967 983l-160 -160q-73 66 -108 115t-35 113q0 54 13 102.5t31 83.5t47.5 70.5t52.5 57t56 48.5l23 -22q-84 -91 -84 -205q0 -70 55 -127t109 -76zM580 901l-160 -160q-74 66 -109 115t-35 113q0 66 17.5 123t51 102t62 73.5t70.5 63.5l23 -22q-84 -91 -84 -205
q0 -70 55 -127t109 -76z" />
    <glyph glyph-name="quotedblright" unicode="&#x201d;" 
d="M641 1257l160 160q74 -66 108.5 -114.5t34.5 -112.5q0 -66 -17.5 -123t-51 -102.5t-62 -74t-70.5 -63.5l-22 23q84 91 84 205q0 70 -54.5 126.5t-109.5 75.5zM264 1176l160 159q74 -66 108.5 -114.5t34.5 -112.5q0 -66 -17 -123t-50.5 -102t-62 -74.5t-70.5 -63.5l-23 23
q84 91 84 205q0 70 -55 127t-109 76z" />
    <glyph glyph-name="quotedblbase" unicode="&#x201e;" 
d="M641 174l160 160q73 -66 108 -115t35 -113q0 -66 -17.5 -123t-51 -102t-62 -73.5t-70.5 -63.5l-22 23q84 91 84 204q0 70 -55 127t-109 76zM264 92l160 160q74 -66 108.5 -114.5t34.5 -112.5q0 -66 -17 -123t-50.5 -102t-62 -74.5t-70.5 -63.5l-23 23q84 91 84 204
q0 70 -55 127t-109 76z" />
    <glyph glyph-name="bullet" unicode="&#x2022;" 
d="M614 -53l-505 506l505 503l504 -503z" />
    <glyph glyph-name="ellipsis" unicode="&#x2026;" 
d="M164 -45l-180 180l180 180l178 -180zM614 -45l-180 180l180 180l179 -180zM1065 -45l-180 180l180 180l178 -180z" />
    <glyph glyph-name="uni202F" unicode="&#x202f;" horiz-adv-x="355" 
 />
    <glyph glyph-name="guilsinglleft" unicode="&#x2039;" 
d="M610 449l353 436l-19 24l-549 -460l551 -476l19 23z" />
    <glyph glyph-name="guilsinglright" unicode="&#x203a;" 
d="M272 -4l19 -23l551 476l-549 460l-19 -24l353 -436z" />
    <glyph glyph-name="uni205F" unicode="&#x205f;" horiz-adv-x="444" 
 />
    <glyph glyph-name="Euro" unicode="&#x20ac;" 
d="M348 684q7 -109 10 -137h471l-20 -62h-438q20 -91 50 -164.5t76.5 -136.5t115 -98t153.5 -35q203 0 295 127l51 275h18l56 -303l-55.5 -45t-66.5 -45t-86 -45t-98.5 -29t-119.5 -13q-215 0 -356 131t-179 381h-141v62h133q-4 62 -4 137h-127v61h127q9 94 35 185t72 175.5
t105.5 148.5t141.5 102.5t174 38.5q81 0 148 -13t114 -37.5t71.5 -41.5t53.5 -43l-55 -437h-22l-58 357q-109 112 -274 112q-176 0 -266.5 -144.5t-104.5 -402.5h526l-20 -61h-506z" />
    <glyph glyph-name="trademark" unicode="&#x2122;" 
d="M522 1393l-39 -283h-12l-43 221h-106v-532l180 -47v-21h-459v21l180 47v532h-106l-43 -221h-13l-38 283l176 -11h147zM1042 1382h183v-12l-68 -35v-536l57 -47v-21h-292v21l143 47v483l-31 -111l-129 -262h-39l-153 371v-481l123 -47v-21h-269v21l66 47v536l-76 35v12
h197l129 -270l10 -74z" />
    <glyph glyph-name="uni25FC" unicode="&#x25fc;" horiz-adv-x="901" 
d="M0 901h901v-901h-901v901z" />
    <glyph glyph-name="nonmarkingreturn" 
 />
  </font>
</defs>
</svg>
